M48
;DRILL file {Pcbnew (2013-mar-13)-testing} date Sun 29 Sep 2013 07:29:02 PM ART
;FORMAT={-:-/ absolute / inch / decimal}
FMAT,2
INCH,TZ
T1C0.028
T2C0.032
T3C0.040
T4C0.118
%
G90
G05
M72
T1
X6.329Y-7.4117
X6.3819Y-6.3898
X6.6693Y-7.3031
X6.6772Y-7.4488
X6.6929Y-5.937
X6.9646Y-7.4843
X7.0039Y-5.6614
X7.0118Y-6.1024
X7.2047Y-7.4567
X7.2598Y-6.8307
X7.3346Y-7.3228
X7.4567Y-4.8228
X7.4685Y-5.5591
X7.4803Y-5.3701
X7.5551Y-7.1378
X7.5568Y-4.7103
X7.563Y-6.8386
X7.6457Y-4.5709
X7.7568Y-4.7646
X7.7839Y-3.6501
X7.8386Y-7.7047
X7.8568Y-4.8528
X7.8701Y-5.3701
X7.9724Y-5.6614
X8.122Y-7.7835
X8.2126Y-4.0551
X8.7257Y-5.2309
T2
X6.456Y-4.766
X6.456Y-5.166
X6.456Y-5.3294
X6.456Y-5.4294
X6.7513Y-3.9817
X6.7603Y-4.2573
X6.8603Y-4.2573
X6.9087Y-3.9817
X7.0441Y-3.7795
X7.4441Y-3.7795
X8.572Y-3.7402
X8.672Y-3.7402
X8.7591Y-4.1589
X8.7591Y-4.3163
T3
X6.406Y-6.5117
X6.406Y-6.6117
X6.406Y-6.7117
X6.406Y-6.8117
X6.406Y-6.9117
X6.406Y-7.0117
X6.406Y-7.1117
X6.406Y-7.2117
X6.406Y-7.3117
X6.406Y-7.4117
X6.406Y-7.5117
X6.406Y-7.6117
X6.406Y-7.7117
X6.456Y-4.4829
X6.456Y-4.5829
X6.456Y-5.6624
X6.456Y-5.7624
X6.456Y-5.8624
X6.456Y-5.9624
X6.506Y-6.5117
X6.506Y-6.6117
X6.506Y-6.7117
X6.506Y-6.8117
X6.506Y-6.9117
X6.506Y-7.0117
X6.506Y-7.1117
X6.506Y-7.2117
X6.506Y-7.3117
X6.506Y-7.4117
X6.506Y-7.5117
X6.506Y-7.6117
X6.506Y-7.7117
X6.7807Y-3.7205
X6.8807Y-3.7205
X7.3568Y-4.9947
X7.3568Y-5.0947
X7.4568Y-4.9947
X7.4568Y-5.0947
X7.5068Y-7.9778
X7.5568Y-4.9947
X7.5568Y-5.0947
X7.6068Y-7.9778
X7.6568Y-4.9947
X7.6568Y-5.0947
X7.6839Y-3.7652
X7.7068Y-7.9778
X7.7568Y-4.9947
X7.7568Y-5.0947
X7.7839Y-3.7652
X7.8068Y-7.9778
X7.8568Y-4.9947
X7.8568Y-5.0947
X7.8839Y-3.7652
X7.9568Y-4.9947
X7.9568Y-5.0947
X7.9839Y-3.7652
X8.9166Y-5.1309
X8.9166Y-5.2309
X8.9166Y-5.3309
X8.9166Y-5.4309
T4
X6.4764Y-7.9409
X6.4961Y-3.9449
X6.4961Y-6.2638
X8.8583Y-3.9409
X8.8583Y-6.2638
X8.878Y-7.9567
T0
M30
