G04 (created by PCBNEW (2013-mar-13)-testing) date Sun 29 Sep 2013 07:29:00 PM ART*
%MOIN*%
G04 Gerber Fmt 3.4, Leading zero omitted, Abs format*
%FSLAX34Y34*%
G01*
G70*
G90*
G04 APERTURE LIST*
%ADD10C,0.005906*%
%ADD11C,0.007874*%
%ADD12C,0.094488*%
%ADD13R,0.075748X0.075748*%
%ADD14C,0.094448*%
%ADD15R,0.070748X0.070748*%
%ADD16C,0.133858*%
%ADD17C,0.055118*%
G04 APERTURE END LIST*
G54D10*
G54D11*
X62992Y-80905D02*
X62992Y-35925D01*
X90551Y-80905D02*
X62992Y-80905D01*
X90551Y-35925D02*
X90551Y-80905D01*
X62992Y-35925D02*
X90551Y-35925D01*
X62985Y-61864D02*
X62985Y-63045D01*
G54D12*
X64559Y-47659D03*
X64559Y-51659D03*
X70440Y-37795D03*
X74440Y-37795D03*
G54D13*
X73567Y-50947D03*
G54D12*
X73567Y-49947D03*
X74567Y-50947D03*
X74567Y-49947D03*
X75567Y-50947D03*
X75567Y-49947D03*
X76567Y-50947D03*
X76567Y-49947D03*
X77567Y-50947D03*
X77567Y-49947D03*
X78567Y-50947D03*
X78567Y-49947D03*
X79567Y-50947D03*
X79567Y-49947D03*
G54D13*
X64559Y-56624D03*
G54D12*
X64559Y-57624D03*
X64559Y-58624D03*
X64559Y-59624D03*
G54D13*
X89166Y-54309D03*
G54D12*
X89166Y-53309D03*
X89166Y-52309D03*
X89166Y-51309D03*
G54D13*
X75067Y-79777D03*
G54D12*
X76067Y-79777D03*
X77067Y-79777D03*
X78067Y-79777D03*
G54D13*
X79839Y-37651D03*
G54D12*
X78839Y-37651D03*
X77839Y-37651D03*
X76839Y-37651D03*
G54D13*
X64559Y-44829D03*
G54D12*
X64559Y-45829D03*
G54D13*
X68807Y-37204D03*
G54D12*
X67807Y-37204D03*
G54D13*
X65059Y-77116D03*
G54D12*
X64059Y-77116D03*
X65059Y-76116D03*
X64059Y-76116D03*
X65059Y-75116D03*
X64059Y-75116D03*
X65059Y-74116D03*
X64059Y-74116D03*
X65059Y-73116D03*
X64059Y-73116D03*
X65059Y-72116D03*
X64059Y-72116D03*
X65059Y-71116D03*
X64059Y-71116D03*
X65059Y-70116D03*
X64059Y-70116D03*
X65059Y-69116D03*
X64059Y-69116D03*
X65059Y-68116D03*
X64059Y-68116D03*
X65059Y-67116D03*
X64059Y-67116D03*
X65059Y-66116D03*
X64059Y-66116D03*
X65059Y-65116D03*
X64059Y-65116D03*
G54D14*
X67513Y-39817D03*
X69087Y-39817D03*
X87591Y-43163D03*
X87591Y-41589D03*
G54D12*
X64559Y-54293D03*
X64559Y-53293D03*
G54D15*
X85720Y-37401D03*
G54D12*
X86720Y-37401D03*
X68603Y-42573D03*
X67603Y-42573D03*
G54D16*
X88779Y-79566D03*
X64763Y-79409D03*
X88582Y-62637D03*
X64960Y-62637D03*
X64960Y-39448D03*
X88582Y-39409D03*
G54D12*
X79724Y-56614D03*
X70039Y-56614D03*
X73346Y-73228D03*
X76456Y-45708D03*
X66929Y-59370D03*
X77567Y-47646D03*
X87257Y-52309D03*
X75629Y-68385D03*
X78567Y-48528D03*
X74685Y-55590D03*
X78385Y-77047D03*
X77839Y-36500D03*
X82125Y-40551D03*
X78700Y-53700D03*
X74803Y-53700D03*
X70118Y-61023D03*
X72598Y-68307D03*
X75551Y-71377D03*
X74566Y-48228D03*
X72047Y-74566D03*
X63818Y-63897D03*
X66692Y-73031D03*
X75567Y-47103D03*
X69645Y-74842D03*
G54D17*
X63289Y-74116D03*
G54D12*
X66771Y-74488D03*
G54D17*
X81220Y-77834D03*
M02*
