G04 (created by PCBNEW (2013-mar-13)-testing) date Sun 29 Sep 2013 07:29:00 PM ART*
%MOIN*%
G04 Gerber Fmt 3.4, Leading zero omitted, Abs format*
%FSLAX34Y34*%
G01*
G70*
G90*
G04 APERTURE LIST*
%ADD10C,0.005906*%
%ADD11C,0.007874*%
%ADD12C,0.000100*%
%ADD13C,0.078740*%
%ADD14R,0.060000X0.060000*%
%ADD15C,0.078700*%
%ADD16R,0.055000X0.055000*%
%ADD17C,0.118110*%
%ADD18C,0.039370*%
%ADD19C,0.030000*%
%ADD20C,0.015000*%
%ADD21C,0.012000*%
G04 APERTURE END LIST*
G54D10*
G54D11*
X62992Y-80905D02*
X62992Y-35925D01*
X90551Y-80905D02*
X62992Y-80905D01*
X90551Y-35925D02*
X90551Y-80905D01*
X62992Y-35925D02*
X90551Y-35925D01*
X62985Y-61864D02*
X62985Y-63045D01*
G54D12*
G36*
X89068Y-66247D02*
X89068Y-66711D01*
X85267Y-66711D01*
X85267Y-67761D01*
X85269Y-68054D01*
X85272Y-68321D01*
X85277Y-68555D01*
X85284Y-68747D01*
X85293Y-68888D01*
X85302Y-68972D01*
X85303Y-68975D01*
X85352Y-69124D01*
X85436Y-69254D01*
X85562Y-69373D01*
X85740Y-69491D01*
X85911Y-69583D01*
X86057Y-69656D01*
X86155Y-69701D01*
X86214Y-69721D01*
X86245Y-69720D01*
X86258Y-69700D01*
X86262Y-69682D01*
X86249Y-69625D01*
X86193Y-69545D01*
X86089Y-69435D01*
X86073Y-69420D01*
X85959Y-69300D01*
X85881Y-69189D01*
X85834Y-69069D01*
X85809Y-68922D01*
X85801Y-68729D01*
X85801Y-68689D01*
X85799Y-68583D01*
X85801Y-68507D01*
X85815Y-68456D01*
X85850Y-68428D01*
X85916Y-68419D01*
X86022Y-68425D01*
X86176Y-68444D01*
X86373Y-68468D01*
X86661Y-68497D01*
X86952Y-68517D01*
X87234Y-68526D01*
X87495Y-68526D01*
X87722Y-68515D01*
X87905Y-68495D01*
X88009Y-68472D01*
X88221Y-68380D01*
X88378Y-68253D01*
X88479Y-68089D01*
X88528Y-67885D01*
X88533Y-67784D01*
X88527Y-67640D01*
X88500Y-67529D01*
X88449Y-67425D01*
X88321Y-67271D01*
X88135Y-67146D01*
X87893Y-67050D01*
X87659Y-66995D01*
X87578Y-66985D01*
X87542Y-66998D01*
X87534Y-67044D01*
X87534Y-67055D01*
X87550Y-67116D01*
X87605Y-67166D01*
X87672Y-67200D01*
X87814Y-67296D01*
X87903Y-67430D01*
X87934Y-67595D01*
X87934Y-67597D01*
X87905Y-67766D01*
X87819Y-67902D01*
X87681Y-68002D01*
X87495Y-68061D01*
X87437Y-68070D01*
X87332Y-68074D01*
X87174Y-68071D01*
X86972Y-68060D01*
X86741Y-68043D01*
X86490Y-68020D01*
X86233Y-67992D01*
X86093Y-67975D01*
X85802Y-67939D01*
X85793Y-67335D01*
X85784Y-66731D01*
X85526Y-66721D01*
X85267Y-66711D01*
X89068Y-66711D01*
X89068Y-70784D01*
X86451Y-70784D01*
X86428Y-70857D01*
X86407Y-70923D01*
X86374Y-71032D01*
X86335Y-71163D01*
X86324Y-71197D01*
X86245Y-71464D01*
X86154Y-71164D01*
X86113Y-71028D01*
X86079Y-70915D01*
X86056Y-70840D01*
X86050Y-70822D01*
X86024Y-70805D01*
X85960Y-70821D01*
X85885Y-70854D01*
X85799Y-70901D01*
X85744Y-70939D01*
X85734Y-70953D01*
X85750Y-70990D01*
X85795Y-71072D01*
X85859Y-71184D01*
X85919Y-71284D01*
X85994Y-71409D01*
X86052Y-71511D01*
X86087Y-71577D01*
X86094Y-71598D01*
X86059Y-71597D01*
X85973Y-71588D01*
X85852Y-71571D01*
X85784Y-71561D01*
X85649Y-71541D01*
X85540Y-71525D01*
X85472Y-71516D01*
X85459Y-71515D01*
X85445Y-71545D01*
X85436Y-71622D01*
X85434Y-71698D01*
X85436Y-71803D01*
X85446Y-71855D01*
X85472Y-71871D01*
X85509Y-71866D01*
X85594Y-71850D01*
X85708Y-71833D01*
X85833Y-71817D01*
X85950Y-71804D01*
X86042Y-71796D01*
X86091Y-71795D01*
X86094Y-71796D01*
X86082Y-71827D01*
X86041Y-71903D01*
X85977Y-72011D01*
X85904Y-72129D01*
X85702Y-72449D01*
X85851Y-72522D01*
X85955Y-72563D01*
X86020Y-72569D01*
X86031Y-72562D01*
X86053Y-72518D01*
X86088Y-72426D01*
X86130Y-72302D01*
X86152Y-72231D01*
X86244Y-71931D01*
X86343Y-72247D01*
X86385Y-72382D01*
X86421Y-72491D01*
X86445Y-72560D01*
X86452Y-72576D01*
X86488Y-72573D01*
X86560Y-72550D01*
X86646Y-72517D01*
X86722Y-72482D01*
X86765Y-72455D01*
X86768Y-72450D01*
X86751Y-72414D01*
X86706Y-72334D01*
X86640Y-72222D01*
X86566Y-72100D01*
X86364Y-71773D01*
X86474Y-71792D01*
X86576Y-71808D01*
X86702Y-71825D01*
X86751Y-71831D01*
X86865Y-71846D01*
X86962Y-71861D01*
X86993Y-71867D01*
X87035Y-71871D01*
X87058Y-71850D01*
X87066Y-71789D01*
X87068Y-71698D01*
X87062Y-71582D01*
X87043Y-71524D01*
X87024Y-71514D01*
X86969Y-71520D01*
X86872Y-71533D01*
X86782Y-71548D01*
X86653Y-71570D01*
X86534Y-71590D01*
X86476Y-71600D01*
X86368Y-71617D01*
X86571Y-71280D01*
X86649Y-71148D01*
X86711Y-71038D01*
X86751Y-70961D01*
X86761Y-70930D01*
X86726Y-70910D01*
X86650Y-70874D01*
X86600Y-70850D01*
X86451Y-70784D01*
X89068Y-70784D01*
X89068Y-71597D01*
X89068Y-74221D01*
X85991Y-74221D01*
X85861Y-74235D01*
X85828Y-74244D01*
X85689Y-74321D01*
X85563Y-74445D01*
X85470Y-74600D01*
X85452Y-74643D01*
X85425Y-74764D01*
X85409Y-74930D01*
X85404Y-75120D01*
X85410Y-75315D01*
X85427Y-75493D01*
X85446Y-75597D01*
X85484Y-75763D01*
X85718Y-75803D01*
X85872Y-75829D01*
X85973Y-75841D01*
X86032Y-75840D01*
X86059Y-75823D01*
X86067Y-75789D01*
X86068Y-75772D01*
X86054Y-75722D01*
X86005Y-75680D01*
X85906Y-75635D01*
X85893Y-75629D01*
X85772Y-75570D01*
X85691Y-75494D01*
X85641Y-75387D01*
X85614Y-75234D01*
X85607Y-75144D01*
X85606Y-74988D01*
X85625Y-74875D01*
X85650Y-74817D01*
X85741Y-74709D01*
X85876Y-74643D01*
X86047Y-74618D01*
X86245Y-74635D01*
X86461Y-74695D01*
X86623Y-74764D01*
X86766Y-74845D01*
X86906Y-74945D01*
X87048Y-75074D01*
X87201Y-75237D01*
X87371Y-75441D01*
X87564Y-75693D01*
X87641Y-75797D01*
X87777Y-75981D01*
X87882Y-76117D01*
X87965Y-76213D01*
X88034Y-76276D01*
X88097Y-76314D01*
X88163Y-76334D01*
X88239Y-76342D01*
X88259Y-76344D01*
X88334Y-76347D01*
X88334Y-75447D01*
X88333Y-75166D01*
X88331Y-74946D01*
X88327Y-74780D01*
X88321Y-74664D01*
X88313Y-74590D01*
X88302Y-74554D01*
X88293Y-74547D01*
X88234Y-74542D01*
X88143Y-74529D01*
X88126Y-74526D01*
X88002Y-74506D01*
X87993Y-75229D01*
X87984Y-75952D01*
X87721Y-75579D01*
X87479Y-75246D01*
X87261Y-74970D01*
X87061Y-74744D01*
X86876Y-74565D01*
X86698Y-74429D01*
X86524Y-74330D01*
X86349Y-74265D01*
X86166Y-74229D01*
X86142Y-74226D01*
X85991Y-74221D01*
X89068Y-74221D01*
X89068Y-76947D01*
X86968Y-76947D01*
X84868Y-76947D01*
X84868Y-71597D01*
X84868Y-66247D01*
X86968Y-66247D01*
X89068Y-66247D01*
X89068Y-66247D01*
X89068Y-66247D01*
G37*
G54D13*
X64559Y-47659D03*
X64559Y-51659D03*
X70440Y-37795D03*
X74440Y-37795D03*
G54D14*
X73567Y-50947D03*
G54D13*
X73567Y-49947D03*
X74567Y-50947D03*
X74567Y-49947D03*
X75567Y-50947D03*
X75567Y-49947D03*
X76567Y-50947D03*
X76567Y-49947D03*
X77567Y-50947D03*
X77567Y-49947D03*
X78567Y-50947D03*
X78567Y-49947D03*
X79567Y-50947D03*
X79567Y-49947D03*
G54D14*
X64559Y-56624D03*
G54D13*
X64559Y-57624D03*
X64559Y-58624D03*
X64559Y-59624D03*
G54D14*
X89166Y-54309D03*
G54D13*
X89166Y-53309D03*
X89166Y-52309D03*
X89166Y-51309D03*
G54D14*
X75067Y-79777D03*
G54D13*
X76067Y-79777D03*
X77067Y-79777D03*
X78067Y-79777D03*
G54D14*
X79839Y-37651D03*
G54D13*
X78839Y-37651D03*
X77839Y-37651D03*
X76839Y-37651D03*
G54D14*
X64559Y-44829D03*
G54D13*
X64559Y-45829D03*
G54D14*
X68807Y-37204D03*
G54D13*
X67807Y-37204D03*
G54D14*
X65059Y-77116D03*
G54D13*
X64059Y-77116D03*
X65059Y-76116D03*
X64059Y-76116D03*
X65059Y-75116D03*
X64059Y-75116D03*
X65059Y-74116D03*
X64059Y-74116D03*
X65059Y-73116D03*
X64059Y-73116D03*
X65059Y-72116D03*
X64059Y-72116D03*
X65059Y-71116D03*
X64059Y-71116D03*
X65059Y-70116D03*
X64059Y-70116D03*
X65059Y-69116D03*
X64059Y-69116D03*
X65059Y-68116D03*
X64059Y-68116D03*
X65059Y-67116D03*
X64059Y-67116D03*
X65059Y-66116D03*
X64059Y-66116D03*
X65059Y-65116D03*
X64059Y-65116D03*
G54D15*
X67513Y-39817D03*
X69087Y-39817D03*
X87591Y-43163D03*
X87591Y-41589D03*
G54D13*
X64559Y-54293D03*
X64559Y-53293D03*
G54D16*
X85720Y-37401D03*
G54D13*
X86720Y-37401D03*
X68603Y-42573D03*
X67603Y-42573D03*
G54D17*
X88779Y-79566D03*
X64763Y-79409D03*
X88582Y-62637D03*
X64960Y-62637D03*
X64960Y-39448D03*
X88582Y-39409D03*
G54D13*
X79724Y-56614D03*
X70039Y-56614D03*
X73346Y-73228D03*
X76456Y-45708D03*
X66929Y-59370D03*
X77567Y-47646D03*
X87257Y-52309D03*
X75629Y-68385D03*
X78567Y-48528D03*
X74685Y-55590D03*
X78385Y-77047D03*
X77839Y-36500D03*
X82125Y-40551D03*
X78700Y-53700D03*
X74803Y-53700D03*
X70118Y-61023D03*
X72598Y-68307D03*
X75551Y-71377D03*
X74566Y-48228D03*
X72047Y-74566D03*
X63818Y-63897D03*
X66692Y-73031D03*
X75567Y-47103D03*
X69645Y-74842D03*
G54D18*
X63289Y-74116D03*
G54D13*
X66771Y-74488D03*
G54D18*
X81220Y-77834D03*
G54D19*
X79094Y-56614D02*
X79724Y-56614D01*
X71023Y-56614D02*
X70039Y-56614D01*
X79724Y-56614D02*
X79763Y-56574D01*
X71023Y-56614D02*
X79094Y-56614D01*
X73090Y-72972D02*
X73346Y-73228D01*
X69330Y-57322D02*
X70039Y-56614D01*
X69330Y-69212D02*
X69330Y-57322D01*
X73090Y-72972D02*
X69330Y-69212D01*
X75157Y-45708D02*
X76456Y-45708D01*
X66929Y-58582D02*
X66929Y-59370D01*
X66929Y-52362D02*
X68228Y-51062D01*
X66929Y-58582D02*
X66929Y-52362D01*
X66889Y-59409D02*
X66929Y-59370D01*
X72047Y-47244D02*
X73582Y-45708D01*
X73582Y-45708D02*
X75157Y-45708D01*
X68228Y-51062D02*
X72047Y-47244D01*
X77576Y-47637D02*
X78661Y-47637D01*
X77567Y-47646D02*
X77576Y-47637D01*
X87257Y-52309D02*
X87204Y-52362D01*
X75629Y-68385D02*
X75629Y-63937D01*
X75629Y-63937D02*
X76259Y-63307D01*
X76259Y-63307D02*
X87204Y-52362D01*
X87204Y-52362D02*
X85629Y-50787D01*
X85629Y-50787D02*
X82480Y-47637D01*
X82480Y-47637D02*
X78661Y-47637D01*
X78661Y-47637D02*
X77559Y-47637D01*
X78582Y-48513D02*
X78582Y-48503D01*
X78567Y-48528D02*
X78582Y-48513D01*
X74685Y-55590D02*
X80433Y-55590D01*
X80433Y-55590D02*
X83070Y-52952D01*
X83070Y-52952D02*
X83070Y-52913D01*
X78346Y-75078D02*
X78346Y-75944D01*
X78385Y-77047D02*
X78346Y-77007D01*
X78346Y-77007D02*
X78346Y-75944D01*
X83070Y-52913D02*
X83070Y-55511D01*
X83070Y-55511D02*
X74724Y-63858D01*
X74724Y-63858D02*
X74724Y-68543D01*
X74724Y-68543D02*
X78346Y-72165D01*
X78346Y-72165D02*
X78346Y-75078D01*
X82047Y-48503D02*
X78582Y-48503D01*
X78582Y-48503D02*
X78543Y-48503D01*
X83070Y-49527D02*
X82047Y-48503D01*
X83070Y-52913D02*
X83070Y-49527D01*
X77883Y-36456D02*
X78818Y-36456D01*
X77839Y-36500D02*
X77883Y-36456D01*
X82125Y-39921D02*
X82125Y-40551D01*
X77362Y-53700D02*
X78700Y-53700D01*
X76062Y-53700D02*
X74803Y-53700D01*
X82125Y-39921D02*
X82125Y-37401D01*
X82125Y-37401D02*
X81181Y-36456D01*
X81181Y-36456D02*
X78818Y-36456D01*
X78818Y-36456D02*
X77795Y-36456D01*
X76062Y-53700D02*
X77362Y-53700D01*
X72598Y-63503D02*
X70118Y-61023D01*
X72598Y-67519D02*
X72598Y-63503D01*
X72598Y-67519D02*
X72598Y-68307D01*
X75551Y-70826D02*
X75551Y-71377D01*
X73602Y-68641D02*
X73188Y-68228D01*
X73188Y-68228D02*
X72677Y-68228D01*
X72677Y-68228D02*
X72598Y-68307D01*
X75551Y-70826D02*
X75551Y-70590D01*
X75551Y-70590D02*
X73602Y-68641D01*
G54D20*
X72598Y-68307D02*
X72598Y-67637D01*
G54D19*
X73779Y-48228D02*
X74566Y-48228D01*
X71141Y-74566D02*
X72047Y-74566D01*
X68897Y-52440D02*
X68740Y-52598D01*
X71062Y-74566D02*
X71141Y-74566D01*
X68740Y-72244D02*
X71062Y-74566D01*
X68740Y-52598D02*
X68740Y-72244D01*
X73110Y-48228D02*
X68897Y-52440D01*
X73779Y-48228D02*
X73110Y-48228D01*
X64724Y-63897D02*
X63818Y-63897D01*
X66692Y-72086D02*
X66692Y-73031D01*
X66692Y-72086D02*
X66692Y-65039D01*
X65551Y-63897D02*
X64724Y-63897D01*
X66692Y-65039D02*
X65551Y-63897D01*
X75551Y-47086D02*
X75472Y-47007D01*
X75472Y-47007D02*
X73346Y-47007D01*
X73346Y-47007D02*
X67913Y-52440D01*
X67913Y-52440D02*
X67913Y-73110D01*
X67913Y-73110D02*
X69133Y-74330D01*
X75567Y-47103D02*
X75551Y-47086D01*
G54D20*
X69645Y-74842D02*
X69173Y-74370D01*
X69173Y-74370D02*
X69133Y-74409D01*
X69133Y-74409D02*
X69133Y-74330D01*
G54D19*
X69133Y-74330D02*
X69645Y-74842D01*
X63289Y-74116D02*
X63307Y-74133D01*
X66771Y-75275D02*
X66771Y-74488D01*
X66338Y-78149D02*
X66771Y-77716D01*
X66771Y-77716D02*
X66771Y-75275D01*
G54D20*
X63307Y-77795D02*
X63661Y-78149D01*
X63307Y-74133D02*
X63307Y-77795D01*
X63267Y-74094D02*
X63307Y-74133D01*
G54D19*
X63661Y-78149D02*
X66338Y-78149D01*
G54D10*
G36*
X64635Y-75616D02*
X64559Y-75692D01*
X64451Y-75583D01*
X64455Y-75569D01*
X64059Y-75173D01*
X64054Y-75178D01*
X63997Y-75122D01*
X64003Y-75116D01*
X63997Y-75110D01*
X64054Y-75054D01*
X64059Y-75059D01*
X64455Y-74663D01*
X64451Y-74649D01*
X64559Y-74541D01*
X64635Y-74616D01*
X64526Y-74725D01*
X64512Y-74720D01*
X64116Y-75116D01*
X64512Y-75512D01*
X64526Y-75507D01*
X64635Y-75616D01*
X64635Y-75616D01*
G37*
G54D21*
X64635Y-75616D02*
X64559Y-75692D01*
X64451Y-75583D01*
X64455Y-75569D01*
X64059Y-75173D01*
X64054Y-75178D01*
X63997Y-75122D01*
X64003Y-75116D01*
X63997Y-75110D01*
X64054Y-75054D01*
X64059Y-75059D01*
X64455Y-74663D01*
X64451Y-74649D01*
X64559Y-74541D01*
X64635Y-74616D01*
X64526Y-74725D01*
X64512Y-74720D01*
X64116Y-75116D01*
X64512Y-75512D01*
X64526Y-75507D01*
X64635Y-75616D01*
G54D10*
G36*
X90331Y-80686D02*
X89822Y-80686D01*
X89822Y-51425D01*
X89816Y-51165D01*
X89727Y-50950D01*
X89618Y-50913D01*
X89562Y-50969D01*
X89562Y-50856D01*
X89524Y-50747D01*
X89433Y-50712D01*
X89433Y-39241D01*
X89304Y-38928D01*
X89065Y-38688D01*
X88752Y-38559D01*
X88414Y-38558D01*
X88101Y-38687D01*
X87862Y-38927D01*
X87732Y-39239D01*
X87731Y-39577D01*
X87861Y-39890D01*
X88100Y-40130D01*
X88412Y-40259D01*
X88751Y-40260D01*
X89063Y-40130D01*
X89303Y-39891D01*
X89433Y-39579D01*
X89433Y-39241D01*
X89433Y-50712D01*
X89282Y-50653D01*
X89022Y-50658D01*
X88807Y-50747D01*
X88770Y-50856D01*
X89166Y-51252D01*
X89562Y-50856D01*
X89562Y-50969D01*
X89222Y-51309D01*
X89618Y-51705D01*
X89727Y-51668D01*
X89822Y-51425D01*
X89822Y-80686D01*
X89819Y-80686D01*
X89819Y-53179D01*
X89720Y-52939D01*
X89590Y-52809D01*
X89719Y-52680D01*
X89819Y-52440D01*
X89819Y-52179D01*
X89720Y-51939D01*
X89557Y-51776D01*
X89562Y-51762D01*
X89166Y-51366D01*
X89109Y-51422D01*
X89109Y-51309D01*
X88713Y-50913D01*
X88604Y-50950D01*
X88509Y-51193D01*
X88515Y-51453D01*
X88604Y-51668D01*
X88713Y-51705D01*
X89109Y-51309D01*
X89109Y-51422D01*
X88770Y-51762D01*
X88774Y-51776D01*
X88612Y-51938D01*
X88512Y-52178D01*
X88512Y-52438D01*
X88611Y-52679D01*
X88741Y-52809D01*
X88612Y-52938D01*
X88512Y-53178D01*
X88512Y-53438D01*
X88611Y-53679D01*
X88720Y-53788D01*
X88718Y-53789D01*
X88645Y-53862D01*
X88606Y-53957D01*
X88606Y-54061D01*
X88606Y-54661D01*
X88645Y-54756D01*
X88718Y-54829D01*
X88814Y-54869D01*
X88917Y-54869D01*
X89517Y-54869D01*
X89613Y-54829D01*
X89686Y-54756D01*
X89726Y-54661D01*
X89726Y-54557D01*
X89726Y-53957D01*
X89686Y-53862D01*
X89613Y-53789D01*
X89611Y-53788D01*
X89719Y-53680D01*
X89819Y-53440D01*
X89819Y-53179D01*
X89819Y-80686D01*
X89630Y-80686D01*
X89630Y-79398D01*
X89501Y-79085D01*
X89433Y-79018D01*
X89433Y-62469D01*
X89304Y-62156D01*
X89065Y-61917D01*
X88752Y-61787D01*
X88414Y-61787D01*
X88247Y-61856D01*
X88247Y-43279D01*
X88244Y-43162D01*
X88244Y-41459D01*
X88145Y-41219D01*
X87962Y-41035D01*
X87721Y-40935D01*
X87461Y-40935D01*
X87376Y-40970D01*
X87376Y-37517D01*
X87371Y-37257D01*
X87282Y-37042D01*
X87173Y-37005D01*
X87116Y-37062D01*
X87116Y-36948D01*
X87079Y-36839D01*
X86836Y-36745D01*
X86576Y-36750D01*
X86361Y-36839D01*
X86324Y-36948D01*
X86720Y-37345D01*
X87116Y-36948D01*
X87116Y-37062D01*
X86777Y-37401D01*
X87173Y-37797D01*
X87282Y-37760D01*
X87376Y-37517D01*
X87376Y-40970D01*
X87221Y-41035D01*
X87116Y-41139D01*
X87116Y-37854D01*
X86720Y-37458D01*
X86663Y-37514D01*
X86663Y-37401D01*
X86267Y-37005D01*
X86231Y-37017D01*
X86215Y-36979D01*
X86142Y-36906D01*
X86047Y-36866D01*
X85943Y-36866D01*
X85393Y-36866D01*
X85298Y-36906D01*
X85225Y-36979D01*
X85185Y-37074D01*
X85185Y-37178D01*
X85185Y-37728D01*
X85225Y-37823D01*
X85298Y-37896D01*
X85393Y-37936D01*
X85497Y-37936D01*
X86047Y-37936D01*
X86142Y-37896D01*
X86215Y-37823D01*
X86231Y-37785D01*
X86267Y-37797D01*
X86663Y-37401D01*
X86663Y-37514D01*
X86324Y-37854D01*
X86361Y-37963D01*
X86604Y-38057D01*
X86864Y-38052D01*
X87079Y-37963D01*
X87116Y-37854D01*
X87116Y-41139D01*
X87037Y-41218D01*
X86937Y-41458D01*
X86937Y-41718D01*
X87037Y-41959D01*
X87220Y-42143D01*
X87460Y-42242D01*
X87720Y-42242D01*
X87961Y-42143D01*
X88145Y-41960D01*
X88244Y-41719D01*
X88244Y-41459D01*
X88244Y-43162D01*
X88241Y-43019D01*
X88152Y-42804D01*
X88043Y-42767D01*
X87987Y-42823D01*
X87987Y-42710D01*
X87949Y-42601D01*
X87707Y-42507D01*
X87447Y-42512D01*
X87232Y-42601D01*
X87195Y-42710D01*
X87591Y-43106D01*
X87987Y-42710D01*
X87987Y-42823D01*
X87647Y-43163D01*
X88043Y-43559D01*
X88152Y-43521D01*
X88247Y-43279D01*
X88247Y-61856D01*
X88101Y-61916D01*
X87987Y-62030D01*
X87987Y-43615D01*
X87591Y-43219D01*
X87534Y-43276D01*
X87534Y-43163D01*
X87138Y-42767D01*
X87029Y-42804D01*
X86935Y-43047D01*
X86940Y-43306D01*
X87029Y-43521D01*
X87138Y-43559D01*
X87534Y-43163D01*
X87534Y-43276D01*
X87195Y-43615D01*
X87232Y-43724D01*
X87474Y-43819D01*
X87734Y-43814D01*
X87949Y-43724D01*
X87987Y-43615D01*
X87987Y-62030D01*
X87911Y-62106D01*
X87911Y-52179D01*
X87811Y-51939D01*
X87628Y-51755D01*
X87388Y-51655D01*
X87128Y-51655D01*
X87092Y-51670D01*
X85919Y-50497D01*
X82770Y-47347D01*
X82637Y-47259D01*
X82480Y-47227D01*
X78661Y-47227D01*
X78073Y-47227D01*
X77938Y-47092D01*
X77698Y-46992D01*
X77438Y-46992D01*
X77235Y-47076D01*
X77235Y-38104D01*
X76839Y-37708D01*
X76782Y-37765D01*
X76782Y-37651D01*
X76386Y-37255D01*
X76277Y-37293D01*
X76183Y-37535D01*
X76188Y-37795D01*
X76277Y-38010D01*
X76386Y-38048D01*
X76782Y-37651D01*
X76782Y-37765D01*
X76443Y-38104D01*
X76480Y-38213D01*
X76722Y-38308D01*
X76982Y-38302D01*
X77198Y-38213D01*
X77235Y-38104D01*
X77235Y-47076D01*
X77197Y-47091D01*
X77013Y-47275D01*
X76914Y-47515D01*
X76913Y-47775D01*
X77013Y-48016D01*
X77196Y-48200D01*
X77437Y-48300D01*
X77697Y-48300D01*
X77937Y-48200D01*
X78090Y-48047D01*
X78123Y-48047D01*
X78013Y-48157D01*
X77914Y-48397D01*
X77913Y-48657D01*
X78013Y-48898D01*
X78196Y-49082D01*
X78437Y-49181D01*
X78697Y-49182D01*
X78937Y-49082D01*
X79106Y-48913D01*
X81877Y-48913D01*
X82660Y-49697D01*
X82660Y-52782D01*
X80263Y-55180D01*
X80223Y-55180D01*
X80223Y-51063D01*
X80223Y-50063D01*
X80218Y-49803D01*
X80129Y-49588D01*
X80020Y-49551D01*
X79963Y-49607D01*
X79963Y-49494D01*
X79926Y-49385D01*
X79684Y-49290D01*
X79424Y-49296D01*
X79209Y-49385D01*
X79171Y-49494D01*
X79567Y-49890D01*
X79963Y-49494D01*
X79963Y-49607D01*
X79624Y-49947D01*
X80020Y-50343D01*
X80129Y-50305D01*
X80223Y-50063D01*
X80223Y-51063D01*
X80218Y-50803D01*
X80129Y-50588D01*
X80020Y-50551D01*
X79963Y-50607D01*
X79963Y-50494D01*
X79947Y-50447D01*
X79963Y-50399D01*
X79567Y-50003D01*
X79171Y-50399D01*
X79187Y-50447D01*
X79171Y-50494D01*
X79567Y-50890D01*
X79963Y-50494D01*
X79963Y-50607D01*
X79624Y-50947D01*
X80020Y-51343D01*
X80129Y-51305D01*
X80223Y-51063D01*
X80223Y-55180D01*
X79963Y-55180D01*
X79963Y-51399D01*
X79567Y-51003D01*
X79511Y-51060D01*
X79511Y-50947D01*
X79115Y-50551D01*
X79100Y-50556D01*
X78992Y-50447D01*
X79101Y-50338D01*
X79115Y-50343D01*
X79511Y-49947D01*
X79115Y-49551D01*
X79100Y-49556D01*
X78938Y-49393D01*
X78698Y-49293D01*
X78438Y-49293D01*
X78197Y-49392D01*
X78067Y-49522D01*
X77938Y-49393D01*
X77698Y-49293D01*
X77438Y-49293D01*
X77197Y-49392D01*
X77067Y-49522D01*
X76938Y-49393D01*
X76698Y-49293D01*
X76438Y-49293D01*
X76197Y-49392D01*
X76067Y-49522D01*
X75938Y-49393D01*
X75698Y-49293D01*
X75438Y-49293D01*
X75197Y-49392D01*
X75067Y-49522D01*
X74938Y-49393D01*
X74698Y-49293D01*
X74438Y-49293D01*
X74197Y-49392D01*
X74034Y-49555D01*
X74020Y-49551D01*
X73963Y-49607D01*
X73963Y-49494D01*
X73926Y-49385D01*
X73684Y-49290D01*
X73424Y-49296D01*
X73209Y-49385D01*
X73171Y-49494D01*
X73567Y-49890D01*
X73963Y-49494D01*
X73963Y-49607D01*
X73624Y-49947D01*
X74020Y-50343D01*
X74034Y-50338D01*
X74143Y-50447D01*
X74088Y-50501D01*
X74088Y-50499D01*
X74014Y-50426D01*
X73962Y-50404D01*
X73963Y-50399D01*
X73567Y-50003D01*
X73511Y-50060D01*
X73511Y-49947D01*
X73115Y-49551D01*
X73005Y-49588D01*
X72911Y-49830D01*
X72916Y-50090D01*
X73005Y-50305D01*
X73115Y-50343D01*
X73511Y-49947D01*
X73511Y-50060D01*
X73171Y-50399D01*
X73173Y-50404D01*
X73120Y-50426D01*
X73047Y-50499D01*
X73007Y-50595D01*
X73007Y-50698D01*
X73007Y-50842D01*
X73072Y-50907D01*
X73527Y-50907D01*
X73527Y-50899D01*
X73607Y-50899D01*
X73607Y-50907D01*
X73615Y-50907D01*
X73615Y-50987D01*
X73607Y-50987D01*
X73607Y-51442D01*
X73672Y-51507D01*
X73919Y-51507D01*
X74014Y-51467D01*
X74088Y-51394D01*
X74088Y-51392D01*
X74196Y-51501D01*
X74437Y-51600D01*
X74697Y-51601D01*
X74937Y-51501D01*
X75067Y-51371D01*
X75196Y-51501D01*
X75437Y-51600D01*
X75697Y-51601D01*
X75937Y-51501D01*
X76067Y-51371D01*
X76196Y-51501D01*
X76437Y-51600D01*
X76697Y-51601D01*
X76937Y-51501D01*
X77067Y-51371D01*
X77196Y-51501D01*
X77437Y-51600D01*
X77697Y-51601D01*
X77937Y-51501D01*
X78067Y-51371D01*
X78196Y-51501D01*
X78437Y-51600D01*
X78697Y-51601D01*
X78937Y-51501D01*
X79101Y-51338D01*
X79115Y-51343D01*
X79511Y-50947D01*
X79511Y-51060D01*
X79171Y-51399D01*
X79209Y-51508D01*
X79451Y-51603D01*
X79711Y-51598D01*
X79926Y-51508D01*
X79963Y-51399D01*
X79963Y-55180D01*
X79354Y-55180D01*
X79354Y-53571D01*
X79255Y-53330D01*
X79071Y-53146D01*
X78831Y-53047D01*
X78571Y-53046D01*
X78330Y-53146D01*
X78186Y-53290D01*
X77362Y-53290D01*
X76062Y-53290D01*
X75317Y-53290D01*
X75173Y-53146D01*
X74933Y-53047D01*
X74673Y-53046D01*
X74433Y-53146D01*
X74249Y-53330D01*
X74149Y-53570D01*
X74149Y-53830D01*
X74248Y-54070D01*
X74432Y-54254D01*
X74672Y-54354D01*
X74932Y-54354D01*
X75172Y-54255D01*
X75317Y-54110D01*
X76062Y-54110D01*
X77362Y-54110D01*
X78186Y-54110D01*
X78330Y-54254D01*
X78570Y-54354D01*
X78830Y-54354D01*
X79070Y-54255D01*
X79254Y-54071D01*
X79354Y-53831D01*
X79354Y-53571D01*
X79354Y-55180D01*
X75199Y-55180D01*
X75055Y-55036D01*
X74815Y-54936D01*
X74555Y-54936D01*
X74315Y-55036D01*
X74131Y-55219D01*
X74031Y-55459D01*
X74031Y-55720D01*
X74130Y-55960D01*
X74314Y-56144D01*
X74458Y-56204D01*
X73527Y-56204D01*
X73527Y-51442D01*
X73527Y-50987D01*
X73072Y-50987D01*
X73007Y-51052D01*
X73007Y-51195D01*
X73007Y-51298D01*
X73047Y-51394D01*
X73120Y-51467D01*
X73215Y-51507D01*
X73462Y-51507D01*
X73527Y-51442D01*
X73527Y-56204D01*
X71023Y-56204D01*
X70553Y-56204D01*
X70410Y-56060D01*
X70169Y-55960D01*
X69909Y-55960D01*
X69669Y-56059D01*
X69485Y-56243D01*
X69385Y-56483D01*
X69385Y-56688D01*
X69150Y-56923D01*
X69150Y-52768D01*
X69187Y-52730D01*
X73280Y-48638D01*
X73779Y-48638D01*
X74052Y-48638D01*
X74196Y-48782D01*
X74436Y-48881D01*
X74696Y-48882D01*
X74936Y-48782D01*
X75120Y-48599D01*
X75220Y-48358D01*
X75220Y-48098D01*
X75121Y-47858D01*
X74937Y-47674D01*
X74697Y-47574D01*
X74437Y-47574D01*
X74197Y-47673D01*
X74052Y-47818D01*
X73779Y-47818D01*
X73115Y-47818D01*
X73516Y-47417D01*
X74990Y-47417D01*
X75013Y-47472D01*
X75196Y-47657D01*
X75437Y-47756D01*
X75697Y-47756D01*
X75937Y-47657D01*
X76121Y-47473D01*
X76221Y-47233D01*
X76221Y-46973D01*
X76122Y-46733D01*
X75938Y-46549D01*
X75698Y-46449D01*
X75438Y-46449D01*
X75197Y-46548D01*
X75148Y-46597D01*
X73346Y-46597D01*
X73255Y-46616D01*
X73752Y-46118D01*
X75157Y-46118D01*
X75942Y-46118D01*
X76085Y-46262D01*
X76326Y-46362D01*
X76586Y-46362D01*
X76826Y-46263D01*
X77010Y-46079D01*
X77110Y-45839D01*
X77110Y-45579D01*
X77011Y-45338D01*
X76827Y-45154D01*
X76587Y-45055D01*
X76327Y-45054D01*
X76086Y-45154D01*
X75942Y-45298D01*
X75157Y-45298D01*
X75094Y-45298D01*
X75094Y-37665D01*
X74995Y-37425D01*
X74811Y-37241D01*
X74571Y-37141D01*
X74311Y-37141D01*
X74071Y-37240D01*
X73887Y-37424D01*
X73787Y-37664D01*
X73787Y-37924D01*
X73886Y-38165D01*
X74070Y-38349D01*
X74310Y-38448D01*
X74570Y-38449D01*
X74810Y-38349D01*
X74994Y-38166D01*
X75094Y-37925D01*
X75094Y-37665D01*
X75094Y-45298D01*
X73582Y-45298D01*
X73425Y-45329D01*
X73292Y-45418D01*
X71757Y-46954D01*
X71094Y-47616D01*
X71094Y-37665D01*
X70995Y-37425D01*
X70811Y-37241D01*
X70571Y-37141D01*
X70311Y-37141D01*
X70071Y-37240D01*
X69887Y-37424D01*
X69787Y-37664D01*
X69787Y-37924D01*
X69886Y-38165D01*
X70070Y-38349D01*
X70310Y-38448D01*
X70570Y-38449D01*
X70810Y-38349D01*
X70994Y-38166D01*
X71094Y-37925D01*
X71094Y-37665D01*
X71094Y-47616D01*
X69740Y-48970D01*
X69740Y-39687D01*
X69641Y-39447D01*
X69457Y-39263D01*
X69367Y-39226D01*
X69367Y-37556D01*
X69367Y-37453D01*
X69367Y-36853D01*
X69327Y-36757D01*
X69254Y-36684D01*
X69158Y-36644D01*
X69055Y-36644D01*
X68455Y-36644D01*
X68359Y-36684D01*
X68286Y-36757D01*
X68264Y-36810D01*
X68259Y-36808D01*
X68203Y-36865D01*
X68203Y-36752D01*
X68165Y-36642D01*
X67923Y-36548D01*
X67663Y-36553D01*
X67448Y-36642D01*
X67410Y-36752D01*
X67807Y-37148D01*
X68203Y-36752D01*
X68203Y-36865D01*
X67863Y-37204D01*
X68259Y-37600D01*
X68264Y-37599D01*
X68286Y-37652D01*
X68359Y-37725D01*
X68455Y-37764D01*
X68558Y-37764D01*
X69158Y-37764D01*
X69254Y-37725D01*
X69327Y-37652D01*
X69367Y-37556D01*
X69367Y-39226D01*
X69217Y-39163D01*
X68957Y-39163D01*
X68717Y-39262D01*
X68533Y-39446D01*
X68433Y-39686D01*
X68433Y-39946D01*
X68532Y-40187D01*
X68716Y-40371D01*
X68956Y-40470D01*
X69216Y-40470D01*
X69456Y-40371D01*
X69640Y-40187D01*
X69740Y-39947D01*
X69740Y-39687D01*
X69740Y-48970D01*
X69256Y-49454D01*
X69256Y-42443D01*
X69157Y-42203D01*
X68973Y-42019D01*
X68733Y-41919D01*
X68473Y-41919D01*
X68233Y-42018D01*
X68203Y-42048D01*
X68203Y-37657D01*
X67807Y-37261D01*
X67750Y-37317D01*
X67750Y-37204D01*
X67354Y-36808D01*
X67245Y-36846D01*
X67150Y-37088D01*
X67156Y-37348D01*
X67245Y-37563D01*
X67354Y-37600D01*
X67750Y-37204D01*
X67750Y-37317D01*
X67410Y-37657D01*
X67448Y-37766D01*
X67690Y-37860D01*
X67950Y-37855D01*
X68165Y-37766D01*
X68203Y-37657D01*
X68203Y-42048D01*
X68169Y-42082D01*
X68169Y-39933D01*
X68163Y-39673D01*
X68074Y-39458D01*
X67965Y-39421D01*
X67908Y-39477D01*
X67908Y-39364D01*
X67871Y-39255D01*
X67629Y-39161D01*
X67369Y-39166D01*
X67154Y-39255D01*
X67117Y-39364D01*
X67513Y-39760D01*
X67908Y-39364D01*
X67908Y-39477D01*
X67569Y-39817D01*
X67965Y-40213D01*
X68074Y-40175D01*
X68169Y-39933D01*
X68169Y-42082D01*
X68069Y-42181D01*
X68055Y-42177D01*
X67999Y-42233D01*
X67999Y-42120D01*
X67961Y-42011D01*
X67908Y-41990D01*
X67908Y-40269D01*
X67513Y-39873D01*
X67456Y-39930D01*
X67456Y-39817D01*
X67060Y-39421D01*
X66951Y-39458D01*
X66856Y-39700D01*
X66862Y-39960D01*
X66951Y-40175D01*
X67060Y-40213D01*
X67456Y-39817D01*
X67456Y-39930D01*
X67117Y-40269D01*
X67154Y-40378D01*
X67396Y-40473D01*
X67656Y-40467D01*
X67871Y-40378D01*
X67908Y-40269D01*
X67908Y-41990D01*
X67719Y-41916D01*
X67459Y-41922D01*
X67244Y-42011D01*
X67207Y-42120D01*
X67603Y-42516D01*
X67999Y-42120D01*
X67999Y-42233D01*
X67659Y-42573D01*
X68055Y-42969D01*
X68070Y-42964D01*
X68232Y-43127D01*
X68472Y-43226D01*
X68732Y-43227D01*
X68972Y-43127D01*
X69157Y-42944D01*
X69256Y-42703D01*
X69256Y-42443D01*
X69256Y-49454D01*
X67999Y-50712D01*
X67999Y-43025D01*
X67603Y-42629D01*
X67546Y-42686D01*
X67546Y-42573D01*
X67150Y-42177D01*
X67041Y-42214D01*
X66946Y-42456D01*
X66952Y-42716D01*
X67041Y-42931D01*
X67150Y-42969D01*
X67546Y-42573D01*
X67546Y-42686D01*
X67207Y-43025D01*
X67244Y-43134D01*
X67486Y-43229D01*
X67746Y-43224D01*
X67961Y-43134D01*
X67999Y-43025D01*
X67999Y-50712D01*
X67938Y-50773D01*
X66639Y-52072D01*
X66550Y-52205D01*
X66519Y-52362D01*
X66519Y-58582D01*
X66519Y-58855D01*
X66375Y-58999D01*
X66275Y-59239D01*
X66275Y-59499D01*
X66374Y-59739D01*
X66558Y-59923D01*
X66798Y-60023D01*
X67058Y-60023D01*
X67298Y-59924D01*
X67482Y-59740D01*
X67503Y-59691D01*
X67503Y-73110D01*
X67534Y-73267D01*
X67623Y-73400D01*
X68843Y-74620D01*
X68992Y-74768D01*
X68991Y-74971D01*
X69091Y-75212D01*
X69274Y-75396D01*
X69515Y-75496D01*
X69775Y-75496D01*
X70015Y-75397D01*
X70199Y-75213D01*
X70299Y-74973D01*
X70299Y-74713D01*
X70200Y-74472D01*
X70016Y-74288D01*
X69776Y-74188D01*
X69571Y-74188D01*
X69423Y-74040D01*
X68323Y-72940D01*
X68323Y-52610D01*
X68330Y-52604D01*
X68330Y-72244D01*
X68361Y-72400D01*
X68450Y-72534D01*
X70773Y-74856D01*
X70906Y-74945D01*
X70906Y-74945D01*
X71062Y-74976D01*
X71141Y-74976D01*
X71532Y-74976D01*
X71676Y-75120D01*
X71916Y-75220D01*
X72176Y-75220D01*
X72417Y-75121D01*
X72601Y-74937D01*
X72700Y-74697D01*
X72701Y-74437D01*
X72601Y-74197D01*
X72418Y-74013D01*
X72177Y-73913D01*
X71917Y-73913D01*
X71677Y-74012D01*
X71532Y-74156D01*
X71232Y-74156D01*
X69150Y-72074D01*
X69150Y-69611D01*
X72692Y-73154D01*
X72692Y-73357D01*
X72791Y-73598D01*
X72975Y-73782D01*
X73215Y-73881D01*
X73475Y-73882D01*
X73716Y-73782D01*
X73900Y-73599D01*
X74000Y-73358D01*
X74000Y-73098D01*
X73900Y-72858D01*
X73717Y-72674D01*
X73477Y-72574D01*
X73272Y-72574D01*
X69740Y-69042D01*
X69740Y-61570D01*
X69747Y-61577D01*
X69987Y-61677D01*
X70192Y-61677D01*
X72188Y-63673D01*
X72188Y-67519D01*
X72188Y-67792D01*
X72044Y-67936D01*
X71944Y-68176D01*
X71944Y-68436D01*
X72043Y-68676D01*
X72227Y-68860D01*
X72467Y-68960D01*
X72727Y-68960D01*
X72968Y-68861D01*
X73105Y-68724D01*
X73312Y-68931D01*
X75141Y-70760D01*
X75141Y-70826D01*
X75141Y-70863D01*
X74997Y-71007D01*
X74897Y-71247D01*
X74897Y-71507D01*
X74996Y-71747D01*
X75180Y-71931D01*
X75420Y-72031D01*
X75680Y-72031D01*
X75920Y-71932D01*
X76105Y-71748D01*
X76204Y-71508D01*
X76204Y-71248D01*
X76105Y-71008D01*
X75961Y-70863D01*
X75961Y-70826D01*
X75961Y-70590D01*
X75929Y-70433D01*
X75929Y-70433D01*
X75841Y-70300D01*
X73892Y-68351D01*
X73478Y-67938D01*
X73345Y-67849D01*
X73188Y-67818D01*
X73034Y-67818D01*
X73008Y-67792D01*
X73008Y-67519D01*
X73008Y-63503D01*
X72977Y-63347D01*
X72977Y-63347D01*
X72888Y-63214D01*
X70771Y-61097D01*
X70771Y-60894D01*
X70672Y-60653D01*
X70488Y-60469D01*
X70248Y-60370D01*
X69988Y-60369D01*
X69748Y-60469D01*
X69740Y-60476D01*
X69740Y-57492D01*
X69965Y-57267D01*
X70168Y-57267D01*
X70409Y-57168D01*
X70553Y-57024D01*
X71023Y-57024D01*
X79094Y-57024D01*
X79210Y-57024D01*
X79353Y-57168D01*
X79593Y-57267D01*
X79853Y-57267D01*
X80094Y-57168D01*
X80278Y-56984D01*
X80377Y-56744D01*
X80378Y-56484D01*
X80278Y-56244D01*
X80095Y-56060D01*
X79951Y-56000D01*
X80433Y-56000D01*
X80589Y-55969D01*
X80589Y-55969D01*
X80722Y-55880D01*
X82660Y-53942D01*
X82660Y-55341D01*
X74434Y-63568D01*
X74345Y-63701D01*
X74314Y-63858D01*
X74314Y-68543D01*
X74345Y-68700D01*
X74434Y-68833D01*
X77936Y-72335D01*
X77936Y-75078D01*
X77936Y-75944D01*
X77936Y-76572D01*
X77831Y-76676D01*
X77732Y-76916D01*
X77732Y-77176D01*
X77831Y-77417D01*
X78015Y-77601D01*
X78255Y-77700D01*
X78515Y-77701D01*
X78755Y-77601D01*
X78939Y-77418D01*
X79039Y-77177D01*
X79039Y-76917D01*
X78940Y-76677D01*
X78756Y-76493D01*
X78756Y-76493D01*
X78756Y-75944D01*
X78756Y-75078D01*
X78756Y-72165D01*
X78725Y-72008D01*
X78725Y-72008D01*
X78636Y-71875D01*
X75788Y-69027D01*
X75999Y-68940D01*
X76183Y-68756D01*
X76283Y-68516D01*
X76283Y-68256D01*
X76184Y-68016D01*
X76039Y-67871D01*
X76039Y-64106D01*
X76549Y-63597D01*
X87183Y-52963D01*
X87386Y-52963D01*
X87627Y-52863D01*
X87811Y-52680D01*
X87911Y-52440D01*
X87911Y-52179D01*
X87911Y-62106D01*
X87862Y-62155D01*
X87732Y-62467D01*
X87731Y-62806D01*
X87861Y-63118D01*
X88100Y-63358D01*
X88412Y-63488D01*
X88751Y-63488D01*
X89063Y-63359D01*
X89303Y-63120D01*
X89433Y-62807D01*
X89433Y-62469D01*
X89433Y-79018D01*
X89261Y-78846D01*
X88971Y-78725D01*
X88971Y-66385D01*
X84810Y-66385D01*
X84850Y-76841D01*
X88809Y-76883D01*
X88971Y-66385D01*
X88971Y-78725D01*
X88949Y-78716D01*
X88611Y-78716D01*
X88298Y-78845D01*
X88058Y-79084D01*
X87929Y-79397D01*
X87928Y-79735D01*
X88058Y-80048D01*
X88297Y-80287D01*
X88609Y-80417D01*
X88947Y-80417D01*
X89260Y-80288D01*
X89500Y-80049D01*
X89629Y-79736D01*
X89630Y-79398D01*
X89630Y-80686D01*
X78723Y-80686D01*
X78723Y-79894D01*
X78718Y-79634D01*
X78629Y-79419D01*
X78520Y-79381D01*
X78463Y-79438D01*
X78463Y-79325D01*
X78426Y-79216D01*
X78184Y-79121D01*
X77924Y-79127D01*
X77709Y-79216D01*
X77671Y-79325D01*
X78067Y-79721D01*
X78463Y-79325D01*
X78463Y-79438D01*
X78124Y-79777D01*
X78520Y-80174D01*
X78629Y-80136D01*
X78723Y-79894D01*
X78723Y-80686D01*
X78463Y-80686D01*
X78463Y-80230D01*
X78067Y-79834D01*
X78011Y-79891D01*
X78011Y-79777D01*
X77615Y-79381D01*
X77600Y-79386D01*
X77438Y-79224D01*
X77198Y-79124D01*
X76938Y-79124D01*
X76697Y-79223D01*
X76567Y-79353D01*
X76438Y-79224D01*
X76198Y-79124D01*
X75938Y-79124D01*
X75697Y-79223D01*
X75588Y-79332D01*
X75588Y-79330D01*
X75514Y-79257D01*
X75419Y-79217D01*
X75315Y-79217D01*
X74715Y-79217D01*
X74620Y-79257D01*
X74547Y-79330D01*
X74507Y-79426D01*
X74507Y-79529D01*
X74507Y-80129D01*
X74547Y-80225D01*
X74620Y-80298D01*
X74715Y-80337D01*
X74819Y-80337D01*
X75419Y-80337D01*
X75514Y-80298D01*
X75588Y-80225D01*
X75588Y-80223D01*
X75696Y-80331D01*
X75937Y-80431D01*
X76197Y-80431D01*
X76437Y-80332D01*
X76567Y-80202D01*
X76696Y-80331D01*
X76937Y-80431D01*
X77197Y-80431D01*
X77437Y-80332D01*
X77601Y-80169D01*
X77615Y-80174D01*
X78011Y-79777D01*
X78011Y-79891D01*
X77671Y-80230D01*
X77709Y-80339D01*
X77951Y-80434D01*
X78211Y-80428D01*
X78426Y-80339D01*
X78463Y-80230D01*
X78463Y-80686D01*
X63211Y-80686D01*
X63211Y-78173D01*
X63267Y-78229D01*
X63282Y-78306D01*
X63371Y-78439D01*
X63504Y-78528D01*
X63661Y-78559D01*
X64593Y-78559D01*
X64282Y-78687D01*
X64043Y-78927D01*
X63913Y-79239D01*
X63913Y-79577D01*
X64042Y-79890D01*
X64281Y-80130D01*
X64593Y-80259D01*
X64932Y-80260D01*
X65244Y-80130D01*
X65484Y-79891D01*
X65614Y-79579D01*
X65614Y-79241D01*
X65485Y-78928D01*
X65246Y-78688D01*
X64935Y-78559D01*
X66338Y-78559D01*
X66495Y-78528D01*
X66495Y-78528D01*
X66628Y-78439D01*
X67061Y-78006D01*
X67150Y-77873D01*
X67150Y-77873D01*
X67181Y-77716D01*
X67181Y-75275D01*
X67181Y-75002D01*
X67325Y-74858D01*
X67425Y-74618D01*
X67425Y-74358D01*
X67326Y-74118D01*
X67142Y-73934D01*
X66902Y-73834D01*
X66642Y-73834D01*
X66401Y-73933D01*
X66217Y-74117D01*
X66118Y-74357D01*
X66117Y-74617D01*
X66217Y-74857D01*
X66361Y-75002D01*
X66361Y-75275D01*
X66361Y-77546D01*
X66168Y-77739D01*
X64263Y-77739D01*
X64429Y-77671D01*
X64538Y-77562D01*
X64539Y-77563D01*
X64612Y-77636D01*
X64708Y-77676D01*
X64811Y-77676D01*
X65411Y-77676D01*
X65507Y-77636D01*
X65580Y-77563D01*
X65619Y-77468D01*
X65619Y-77364D01*
X65619Y-76764D01*
X65580Y-76669D01*
X65507Y-76596D01*
X65505Y-76595D01*
X65613Y-76487D01*
X65713Y-76247D01*
X65713Y-75987D01*
X65614Y-75746D01*
X65484Y-75616D01*
X65613Y-75487D01*
X65713Y-75247D01*
X65713Y-74987D01*
X65614Y-74746D01*
X65484Y-74616D01*
X65613Y-74487D01*
X65713Y-74247D01*
X65713Y-73987D01*
X65614Y-73746D01*
X65484Y-73616D01*
X65613Y-73487D01*
X65713Y-73247D01*
X65713Y-72987D01*
X65614Y-72746D01*
X65484Y-72616D01*
X65613Y-72487D01*
X65713Y-72247D01*
X65713Y-71987D01*
X65614Y-71746D01*
X65484Y-71616D01*
X65613Y-71487D01*
X65713Y-71247D01*
X65713Y-70987D01*
X65614Y-70746D01*
X65484Y-70616D01*
X65613Y-70487D01*
X65713Y-70247D01*
X65713Y-69987D01*
X65614Y-69746D01*
X65484Y-69616D01*
X65613Y-69487D01*
X65713Y-69247D01*
X65713Y-68987D01*
X65614Y-68746D01*
X65484Y-68616D01*
X65613Y-68487D01*
X65713Y-68247D01*
X65713Y-67987D01*
X65614Y-67746D01*
X65484Y-67616D01*
X65613Y-67487D01*
X65713Y-67247D01*
X65713Y-66987D01*
X65614Y-66746D01*
X65484Y-66616D01*
X65613Y-66487D01*
X65713Y-66247D01*
X65713Y-65987D01*
X65614Y-65746D01*
X65484Y-65616D01*
X65613Y-65487D01*
X65713Y-65247D01*
X65713Y-64987D01*
X65614Y-64746D01*
X65430Y-64562D01*
X65190Y-64462D01*
X64930Y-64462D01*
X64690Y-64562D01*
X64559Y-64692D01*
X64430Y-64562D01*
X64190Y-64462D01*
X64162Y-64462D01*
X64188Y-64452D01*
X64333Y-64307D01*
X64724Y-64307D01*
X65381Y-64307D01*
X66282Y-65209D01*
X66282Y-72086D01*
X66282Y-72517D01*
X66139Y-72660D01*
X66039Y-72900D01*
X66039Y-73160D01*
X66138Y-73401D01*
X66322Y-73585D01*
X66562Y-73685D01*
X66822Y-73685D01*
X67062Y-73585D01*
X67246Y-73402D01*
X67346Y-73162D01*
X67346Y-72902D01*
X67247Y-72661D01*
X67102Y-72516D01*
X67102Y-72086D01*
X67102Y-65039D01*
X67071Y-64882D01*
X67071Y-64882D01*
X66982Y-64749D01*
X65841Y-63607D01*
X65708Y-63518D01*
X65551Y-63487D01*
X65131Y-63487D01*
X65441Y-63359D01*
X65681Y-63120D01*
X65811Y-62807D01*
X65811Y-62469D01*
X65811Y-39280D01*
X65682Y-38967D01*
X65443Y-38728D01*
X65130Y-38598D01*
X64792Y-38598D01*
X64479Y-38727D01*
X64239Y-38966D01*
X64110Y-39278D01*
X64109Y-39617D01*
X64239Y-39929D01*
X64478Y-40169D01*
X64790Y-40299D01*
X65129Y-40299D01*
X65441Y-40170D01*
X65681Y-39931D01*
X65811Y-39618D01*
X65811Y-39280D01*
X65811Y-62469D01*
X65682Y-62156D01*
X65443Y-61917D01*
X65216Y-61822D01*
X65216Y-59740D01*
X65216Y-47776D01*
X65213Y-47658D01*
X65213Y-45699D01*
X65114Y-45459D01*
X65005Y-45350D01*
X65007Y-45349D01*
X65080Y-45276D01*
X65119Y-45180D01*
X65119Y-44934D01*
X65119Y-44724D01*
X65119Y-44477D01*
X65080Y-44381D01*
X65007Y-44308D01*
X64911Y-44269D01*
X64808Y-44269D01*
X64664Y-44269D01*
X64599Y-44334D01*
X64599Y-44789D01*
X65054Y-44789D01*
X65119Y-44724D01*
X65119Y-44934D01*
X65054Y-44869D01*
X64599Y-44869D01*
X64599Y-44877D01*
X64519Y-44877D01*
X64519Y-44869D01*
X64519Y-44789D01*
X64519Y-44334D01*
X64454Y-44269D01*
X64311Y-44269D01*
X64208Y-44269D01*
X64112Y-44308D01*
X64039Y-44381D01*
X63999Y-44477D01*
X63999Y-44724D01*
X64064Y-44789D01*
X64519Y-44789D01*
X64519Y-44869D01*
X64064Y-44869D01*
X63999Y-44934D01*
X63999Y-45180D01*
X64039Y-45276D01*
X64112Y-45349D01*
X64114Y-45350D01*
X64005Y-45458D01*
X63906Y-45698D01*
X63906Y-45958D01*
X64005Y-46198D01*
X64189Y-46382D01*
X64429Y-46482D01*
X64689Y-46482D01*
X64929Y-46383D01*
X65113Y-46199D01*
X65213Y-45959D01*
X65213Y-45699D01*
X65213Y-47658D01*
X65210Y-47516D01*
X65121Y-47301D01*
X65012Y-47263D01*
X64955Y-47320D01*
X64955Y-47207D01*
X64918Y-47098D01*
X64676Y-47003D01*
X64416Y-47008D01*
X64201Y-47098D01*
X64163Y-47207D01*
X64559Y-47603D01*
X64955Y-47207D01*
X64955Y-47320D01*
X64616Y-47659D01*
X65012Y-48055D01*
X65121Y-48018D01*
X65216Y-47776D01*
X65216Y-59740D01*
X65213Y-59623D01*
X65213Y-58494D01*
X65114Y-58254D01*
X64984Y-58124D01*
X65113Y-57995D01*
X65213Y-57755D01*
X65213Y-57494D01*
X65213Y-54164D01*
X65114Y-53923D01*
X64984Y-53793D01*
X65113Y-53664D01*
X65213Y-53424D01*
X65213Y-53164D01*
X65213Y-51530D01*
X65114Y-51290D01*
X64955Y-51131D01*
X64955Y-48112D01*
X64559Y-47716D01*
X64503Y-47772D01*
X64503Y-47659D01*
X64107Y-47263D01*
X63998Y-47301D01*
X63903Y-47543D01*
X63908Y-47803D01*
X63998Y-48018D01*
X64107Y-48055D01*
X64503Y-47659D01*
X64503Y-47772D01*
X64163Y-48112D01*
X64201Y-48221D01*
X64443Y-48316D01*
X64703Y-48310D01*
X64918Y-48221D01*
X64955Y-48112D01*
X64955Y-51131D01*
X64930Y-51105D01*
X64690Y-51006D01*
X64430Y-51006D01*
X64190Y-51105D01*
X64005Y-51289D01*
X63906Y-51529D01*
X63906Y-51789D01*
X64005Y-52029D01*
X64189Y-52213D01*
X64429Y-52313D01*
X64689Y-52313D01*
X64929Y-52214D01*
X65113Y-52030D01*
X65213Y-51790D01*
X65213Y-51530D01*
X65213Y-53164D01*
X65114Y-52923D01*
X64930Y-52739D01*
X64690Y-52640D01*
X64430Y-52639D01*
X64190Y-52739D01*
X64005Y-52922D01*
X63906Y-53163D01*
X63906Y-53423D01*
X64005Y-53663D01*
X64135Y-53793D01*
X64005Y-53922D01*
X63906Y-54163D01*
X63906Y-54423D01*
X64005Y-54663D01*
X64189Y-54847D01*
X64429Y-54947D01*
X64689Y-54947D01*
X64929Y-54848D01*
X65113Y-54664D01*
X65213Y-54424D01*
X65213Y-54164D01*
X65213Y-57494D01*
X65114Y-57254D01*
X65005Y-57145D01*
X65007Y-57144D01*
X65080Y-57071D01*
X65119Y-56976D01*
X65119Y-56872D01*
X65119Y-56272D01*
X65080Y-56177D01*
X65007Y-56103D01*
X64911Y-56064D01*
X64808Y-56064D01*
X64208Y-56064D01*
X64112Y-56103D01*
X64039Y-56177D01*
X63999Y-56272D01*
X63999Y-56376D01*
X63999Y-56976D01*
X64039Y-57071D01*
X64112Y-57144D01*
X64114Y-57145D01*
X64005Y-57253D01*
X63906Y-57493D01*
X63906Y-57753D01*
X64005Y-57994D01*
X64135Y-58124D01*
X64005Y-58253D01*
X63906Y-58493D01*
X63906Y-58753D01*
X64005Y-58994D01*
X64168Y-59157D01*
X64163Y-59171D01*
X64559Y-59567D01*
X64955Y-59171D01*
X64951Y-59157D01*
X65113Y-58995D01*
X65213Y-58755D01*
X65213Y-58494D01*
X65213Y-59623D01*
X65210Y-59480D01*
X65121Y-59265D01*
X65012Y-59228D01*
X64616Y-59624D01*
X65012Y-60020D01*
X65121Y-59983D01*
X65216Y-59740D01*
X65216Y-61822D01*
X65130Y-61787D01*
X64955Y-61787D01*
X64955Y-60077D01*
X64559Y-59680D01*
X64503Y-59737D01*
X64503Y-59624D01*
X64107Y-59228D01*
X63998Y-59265D01*
X63903Y-59507D01*
X63908Y-59767D01*
X63998Y-59983D01*
X64107Y-60020D01*
X64503Y-59624D01*
X64503Y-59737D01*
X64163Y-60077D01*
X64201Y-60186D01*
X64443Y-60280D01*
X64703Y-60275D01*
X64918Y-60186D01*
X64955Y-60077D01*
X64955Y-61787D01*
X64792Y-61787D01*
X64479Y-61916D01*
X64239Y-62155D01*
X64110Y-62467D01*
X64109Y-62806D01*
X64239Y-63118D01*
X64478Y-63358D01*
X64789Y-63487D01*
X64724Y-63487D01*
X64333Y-63487D01*
X64189Y-63343D01*
X63949Y-63244D01*
X63689Y-63243D01*
X63449Y-63343D01*
X63265Y-63526D01*
X63211Y-63655D01*
X63211Y-36144D01*
X77279Y-36144D01*
X77185Y-36370D01*
X77185Y-36630D01*
X77284Y-36870D01*
X77468Y-37054D01*
X77520Y-37076D01*
X77469Y-37097D01*
X77306Y-37260D01*
X77292Y-37255D01*
X77235Y-37312D01*
X77235Y-37199D01*
X77198Y-37090D01*
X76955Y-36995D01*
X76695Y-37001D01*
X76480Y-37090D01*
X76443Y-37199D01*
X76839Y-37595D01*
X77235Y-37199D01*
X77235Y-37312D01*
X76895Y-37651D01*
X77292Y-38048D01*
X77306Y-38043D01*
X77468Y-38205D01*
X77708Y-38305D01*
X77968Y-38305D01*
X78209Y-38206D01*
X78339Y-38076D01*
X78468Y-38205D01*
X78708Y-38305D01*
X78968Y-38305D01*
X79209Y-38206D01*
X79318Y-38097D01*
X79318Y-38099D01*
X79392Y-38172D01*
X79487Y-38211D01*
X79591Y-38211D01*
X80191Y-38211D01*
X80286Y-38172D01*
X80359Y-38099D01*
X80399Y-38003D01*
X80399Y-37900D01*
X80399Y-37300D01*
X80359Y-37204D01*
X80286Y-37131D01*
X80191Y-37091D01*
X80087Y-37091D01*
X79487Y-37091D01*
X79392Y-37131D01*
X79318Y-37204D01*
X79318Y-37206D01*
X79210Y-37098D01*
X78969Y-36998D01*
X78709Y-36998D01*
X78469Y-37097D01*
X78339Y-37227D01*
X78210Y-37098D01*
X78157Y-37076D01*
X78209Y-37055D01*
X78393Y-36871D01*
X78395Y-36866D01*
X78818Y-36866D01*
X81011Y-36866D01*
X81715Y-37571D01*
X81715Y-39921D01*
X81715Y-40036D01*
X81572Y-40180D01*
X81472Y-40420D01*
X81472Y-40680D01*
X81571Y-40920D01*
X81755Y-41105D01*
X81995Y-41204D01*
X82255Y-41204D01*
X82495Y-41105D01*
X82679Y-40921D01*
X82779Y-40681D01*
X82779Y-40421D01*
X82680Y-40181D01*
X82535Y-40036D01*
X82535Y-39921D01*
X82535Y-37401D01*
X82504Y-37244D01*
X82504Y-37244D01*
X82415Y-37111D01*
X81471Y-36166D01*
X81437Y-36144D01*
X90331Y-36144D01*
X90331Y-80686D01*
X90331Y-80686D01*
G37*
G54D21*
X90331Y-80686D02*
X89822Y-80686D01*
X89822Y-51425D01*
X89816Y-51165D01*
X89727Y-50950D01*
X89618Y-50913D01*
X89562Y-50969D01*
X89562Y-50856D01*
X89524Y-50747D01*
X89433Y-50712D01*
X89433Y-39241D01*
X89304Y-38928D01*
X89065Y-38688D01*
X88752Y-38559D01*
X88414Y-38558D01*
X88101Y-38687D01*
X87862Y-38927D01*
X87732Y-39239D01*
X87731Y-39577D01*
X87861Y-39890D01*
X88100Y-40130D01*
X88412Y-40259D01*
X88751Y-40260D01*
X89063Y-40130D01*
X89303Y-39891D01*
X89433Y-39579D01*
X89433Y-39241D01*
X89433Y-50712D01*
X89282Y-50653D01*
X89022Y-50658D01*
X88807Y-50747D01*
X88770Y-50856D01*
X89166Y-51252D01*
X89562Y-50856D01*
X89562Y-50969D01*
X89222Y-51309D01*
X89618Y-51705D01*
X89727Y-51668D01*
X89822Y-51425D01*
X89822Y-80686D01*
X89819Y-80686D01*
X89819Y-53179D01*
X89720Y-52939D01*
X89590Y-52809D01*
X89719Y-52680D01*
X89819Y-52440D01*
X89819Y-52179D01*
X89720Y-51939D01*
X89557Y-51776D01*
X89562Y-51762D01*
X89166Y-51366D01*
X89109Y-51422D01*
X89109Y-51309D01*
X88713Y-50913D01*
X88604Y-50950D01*
X88509Y-51193D01*
X88515Y-51453D01*
X88604Y-51668D01*
X88713Y-51705D01*
X89109Y-51309D01*
X89109Y-51422D01*
X88770Y-51762D01*
X88774Y-51776D01*
X88612Y-51938D01*
X88512Y-52178D01*
X88512Y-52438D01*
X88611Y-52679D01*
X88741Y-52809D01*
X88612Y-52938D01*
X88512Y-53178D01*
X88512Y-53438D01*
X88611Y-53679D01*
X88720Y-53788D01*
X88718Y-53789D01*
X88645Y-53862D01*
X88606Y-53957D01*
X88606Y-54061D01*
X88606Y-54661D01*
X88645Y-54756D01*
X88718Y-54829D01*
X88814Y-54869D01*
X88917Y-54869D01*
X89517Y-54869D01*
X89613Y-54829D01*
X89686Y-54756D01*
X89726Y-54661D01*
X89726Y-54557D01*
X89726Y-53957D01*
X89686Y-53862D01*
X89613Y-53789D01*
X89611Y-53788D01*
X89719Y-53680D01*
X89819Y-53440D01*
X89819Y-53179D01*
X89819Y-80686D01*
X89630Y-80686D01*
X89630Y-79398D01*
X89501Y-79085D01*
X89433Y-79018D01*
X89433Y-62469D01*
X89304Y-62156D01*
X89065Y-61917D01*
X88752Y-61787D01*
X88414Y-61787D01*
X88247Y-61856D01*
X88247Y-43279D01*
X88244Y-43162D01*
X88244Y-41459D01*
X88145Y-41219D01*
X87962Y-41035D01*
X87721Y-40935D01*
X87461Y-40935D01*
X87376Y-40970D01*
X87376Y-37517D01*
X87371Y-37257D01*
X87282Y-37042D01*
X87173Y-37005D01*
X87116Y-37062D01*
X87116Y-36948D01*
X87079Y-36839D01*
X86836Y-36745D01*
X86576Y-36750D01*
X86361Y-36839D01*
X86324Y-36948D01*
X86720Y-37345D01*
X87116Y-36948D01*
X87116Y-37062D01*
X86777Y-37401D01*
X87173Y-37797D01*
X87282Y-37760D01*
X87376Y-37517D01*
X87376Y-40970D01*
X87221Y-41035D01*
X87116Y-41139D01*
X87116Y-37854D01*
X86720Y-37458D01*
X86663Y-37514D01*
X86663Y-37401D01*
X86267Y-37005D01*
X86231Y-37017D01*
X86215Y-36979D01*
X86142Y-36906D01*
X86047Y-36866D01*
X85943Y-36866D01*
X85393Y-36866D01*
X85298Y-36906D01*
X85225Y-36979D01*
X85185Y-37074D01*
X85185Y-37178D01*
X85185Y-37728D01*
X85225Y-37823D01*
X85298Y-37896D01*
X85393Y-37936D01*
X85497Y-37936D01*
X86047Y-37936D01*
X86142Y-37896D01*
X86215Y-37823D01*
X86231Y-37785D01*
X86267Y-37797D01*
X86663Y-37401D01*
X86663Y-37514D01*
X86324Y-37854D01*
X86361Y-37963D01*
X86604Y-38057D01*
X86864Y-38052D01*
X87079Y-37963D01*
X87116Y-37854D01*
X87116Y-41139D01*
X87037Y-41218D01*
X86937Y-41458D01*
X86937Y-41718D01*
X87037Y-41959D01*
X87220Y-42143D01*
X87460Y-42242D01*
X87720Y-42242D01*
X87961Y-42143D01*
X88145Y-41960D01*
X88244Y-41719D01*
X88244Y-41459D01*
X88244Y-43162D01*
X88241Y-43019D01*
X88152Y-42804D01*
X88043Y-42767D01*
X87987Y-42823D01*
X87987Y-42710D01*
X87949Y-42601D01*
X87707Y-42507D01*
X87447Y-42512D01*
X87232Y-42601D01*
X87195Y-42710D01*
X87591Y-43106D01*
X87987Y-42710D01*
X87987Y-42823D01*
X87647Y-43163D01*
X88043Y-43559D01*
X88152Y-43521D01*
X88247Y-43279D01*
X88247Y-61856D01*
X88101Y-61916D01*
X87987Y-62030D01*
X87987Y-43615D01*
X87591Y-43219D01*
X87534Y-43276D01*
X87534Y-43163D01*
X87138Y-42767D01*
X87029Y-42804D01*
X86935Y-43047D01*
X86940Y-43306D01*
X87029Y-43521D01*
X87138Y-43559D01*
X87534Y-43163D01*
X87534Y-43276D01*
X87195Y-43615D01*
X87232Y-43724D01*
X87474Y-43819D01*
X87734Y-43814D01*
X87949Y-43724D01*
X87987Y-43615D01*
X87987Y-62030D01*
X87911Y-62106D01*
X87911Y-52179D01*
X87811Y-51939D01*
X87628Y-51755D01*
X87388Y-51655D01*
X87128Y-51655D01*
X87092Y-51670D01*
X85919Y-50497D01*
X82770Y-47347D01*
X82637Y-47259D01*
X82480Y-47227D01*
X78661Y-47227D01*
X78073Y-47227D01*
X77938Y-47092D01*
X77698Y-46992D01*
X77438Y-46992D01*
X77235Y-47076D01*
X77235Y-38104D01*
X76839Y-37708D01*
X76782Y-37765D01*
X76782Y-37651D01*
X76386Y-37255D01*
X76277Y-37293D01*
X76183Y-37535D01*
X76188Y-37795D01*
X76277Y-38010D01*
X76386Y-38048D01*
X76782Y-37651D01*
X76782Y-37765D01*
X76443Y-38104D01*
X76480Y-38213D01*
X76722Y-38308D01*
X76982Y-38302D01*
X77198Y-38213D01*
X77235Y-38104D01*
X77235Y-47076D01*
X77197Y-47091D01*
X77013Y-47275D01*
X76914Y-47515D01*
X76913Y-47775D01*
X77013Y-48016D01*
X77196Y-48200D01*
X77437Y-48300D01*
X77697Y-48300D01*
X77937Y-48200D01*
X78090Y-48047D01*
X78123Y-48047D01*
X78013Y-48157D01*
X77914Y-48397D01*
X77913Y-48657D01*
X78013Y-48898D01*
X78196Y-49082D01*
X78437Y-49181D01*
X78697Y-49182D01*
X78937Y-49082D01*
X79106Y-48913D01*
X81877Y-48913D01*
X82660Y-49697D01*
X82660Y-52782D01*
X80263Y-55180D01*
X80223Y-55180D01*
X80223Y-51063D01*
X80223Y-50063D01*
X80218Y-49803D01*
X80129Y-49588D01*
X80020Y-49551D01*
X79963Y-49607D01*
X79963Y-49494D01*
X79926Y-49385D01*
X79684Y-49290D01*
X79424Y-49296D01*
X79209Y-49385D01*
X79171Y-49494D01*
X79567Y-49890D01*
X79963Y-49494D01*
X79963Y-49607D01*
X79624Y-49947D01*
X80020Y-50343D01*
X80129Y-50305D01*
X80223Y-50063D01*
X80223Y-51063D01*
X80218Y-50803D01*
X80129Y-50588D01*
X80020Y-50551D01*
X79963Y-50607D01*
X79963Y-50494D01*
X79947Y-50447D01*
X79963Y-50399D01*
X79567Y-50003D01*
X79171Y-50399D01*
X79187Y-50447D01*
X79171Y-50494D01*
X79567Y-50890D01*
X79963Y-50494D01*
X79963Y-50607D01*
X79624Y-50947D01*
X80020Y-51343D01*
X80129Y-51305D01*
X80223Y-51063D01*
X80223Y-55180D01*
X79963Y-55180D01*
X79963Y-51399D01*
X79567Y-51003D01*
X79511Y-51060D01*
X79511Y-50947D01*
X79115Y-50551D01*
X79100Y-50556D01*
X78992Y-50447D01*
X79101Y-50338D01*
X79115Y-50343D01*
X79511Y-49947D01*
X79115Y-49551D01*
X79100Y-49556D01*
X78938Y-49393D01*
X78698Y-49293D01*
X78438Y-49293D01*
X78197Y-49392D01*
X78067Y-49522D01*
X77938Y-49393D01*
X77698Y-49293D01*
X77438Y-49293D01*
X77197Y-49392D01*
X77067Y-49522D01*
X76938Y-49393D01*
X76698Y-49293D01*
X76438Y-49293D01*
X76197Y-49392D01*
X76067Y-49522D01*
X75938Y-49393D01*
X75698Y-49293D01*
X75438Y-49293D01*
X75197Y-49392D01*
X75067Y-49522D01*
X74938Y-49393D01*
X74698Y-49293D01*
X74438Y-49293D01*
X74197Y-49392D01*
X74034Y-49555D01*
X74020Y-49551D01*
X73963Y-49607D01*
X73963Y-49494D01*
X73926Y-49385D01*
X73684Y-49290D01*
X73424Y-49296D01*
X73209Y-49385D01*
X73171Y-49494D01*
X73567Y-49890D01*
X73963Y-49494D01*
X73963Y-49607D01*
X73624Y-49947D01*
X74020Y-50343D01*
X74034Y-50338D01*
X74143Y-50447D01*
X74088Y-50501D01*
X74088Y-50499D01*
X74014Y-50426D01*
X73962Y-50404D01*
X73963Y-50399D01*
X73567Y-50003D01*
X73511Y-50060D01*
X73511Y-49947D01*
X73115Y-49551D01*
X73005Y-49588D01*
X72911Y-49830D01*
X72916Y-50090D01*
X73005Y-50305D01*
X73115Y-50343D01*
X73511Y-49947D01*
X73511Y-50060D01*
X73171Y-50399D01*
X73173Y-50404D01*
X73120Y-50426D01*
X73047Y-50499D01*
X73007Y-50595D01*
X73007Y-50698D01*
X73007Y-50842D01*
X73072Y-50907D01*
X73527Y-50907D01*
X73527Y-50899D01*
X73607Y-50899D01*
X73607Y-50907D01*
X73615Y-50907D01*
X73615Y-50987D01*
X73607Y-50987D01*
X73607Y-51442D01*
X73672Y-51507D01*
X73919Y-51507D01*
X74014Y-51467D01*
X74088Y-51394D01*
X74088Y-51392D01*
X74196Y-51501D01*
X74437Y-51600D01*
X74697Y-51601D01*
X74937Y-51501D01*
X75067Y-51371D01*
X75196Y-51501D01*
X75437Y-51600D01*
X75697Y-51601D01*
X75937Y-51501D01*
X76067Y-51371D01*
X76196Y-51501D01*
X76437Y-51600D01*
X76697Y-51601D01*
X76937Y-51501D01*
X77067Y-51371D01*
X77196Y-51501D01*
X77437Y-51600D01*
X77697Y-51601D01*
X77937Y-51501D01*
X78067Y-51371D01*
X78196Y-51501D01*
X78437Y-51600D01*
X78697Y-51601D01*
X78937Y-51501D01*
X79101Y-51338D01*
X79115Y-51343D01*
X79511Y-50947D01*
X79511Y-51060D01*
X79171Y-51399D01*
X79209Y-51508D01*
X79451Y-51603D01*
X79711Y-51598D01*
X79926Y-51508D01*
X79963Y-51399D01*
X79963Y-55180D01*
X79354Y-55180D01*
X79354Y-53571D01*
X79255Y-53330D01*
X79071Y-53146D01*
X78831Y-53047D01*
X78571Y-53046D01*
X78330Y-53146D01*
X78186Y-53290D01*
X77362Y-53290D01*
X76062Y-53290D01*
X75317Y-53290D01*
X75173Y-53146D01*
X74933Y-53047D01*
X74673Y-53046D01*
X74433Y-53146D01*
X74249Y-53330D01*
X74149Y-53570D01*
X74149Y-53830D01*
X74248Y-54070D01*
X74432Y-54254D01*
X74672Y-54354D01*
X74932Y-54354D01*
X75172Y-54255D01*
X75317Y-54110D01*
X76062Y-54110D01*
X77362Y-54110D01*
X78186Y-54110D01*
X78330Y-54254D01*
X78570Y-54354D01*
X78830Y-54354D01*
X79070Y-54255D01*
X79254Y-54071D01*
X79354Y-53831D01*
X79354Y-53571D01*
X79354Y-55180D01*
X75199Y-55180D01*
X75055Y-55036D01*
X74815Y-54936D01*
X74555Y-54936D01*
X74315Y-55036D01*
X74131Y-55219D01*
X74031Y-55459D01*
X74031Y-55720D01*
X74130Y-55960D01*
X74314Y-56144D01*
X74458Y-56204D01*
X73527Y-56204D01*
X73527Y-51442D01*
X73527Y-50987D01*
X73072Y-50987D01*
X73007Y-51052D01*
X73007Y-51195D01*
X73007Y-51298D01*
X73047Y-51394D01*
X73120Y-51467D01*
X73215Y-51507D01*
X73462Y-51507D01*
X73527Y-51442D01*
X73527Y-56204D01*
X71023Y-56204D01*
X70553Y-56204D01*
X70410Y-56060D01*
X70169Y-55960D01*
X69909Y-55960D01*
X69669Y-56059D01*
X69485Y-56243D01*
X69385Y-56483D01*
X69385Y-56688D01*
X69150Y-56923D01*
X69150Y-52768D01*
X69187Y-52730D01*
X73280Y-48638D01*
X73779Y-48638D01*
X74052Y-48638D01*
X74196Y-48782D01*
X74436Y-48881D01*
X74696Y-48882D01*
X74936Y-48782D01*
X75120Y-48599D01*
X75220Y-48358D01*
X75220Y-48098D01*
X75121Y-47858D01*
X74937Y-47674D01*
X74697Y-47574D01*
X74437Y-47574D01*
X74197Y-47673D01*
X74052Y-47818D01*
X73779Y-47818D01*
X73115Y-47818D01*
X73516Y-47417D01*
X74990Y-47417D01*
X75013Y-47472D01*
X75196Y-47657D01*
X75437Y-47756D01*
X75697Y-47756D01*
X75937Y-47657D01*
X76121Y-47473D01*
X76221Y-47233D01*
X76221Y-46973D01*
X76122Y-46733D01*
X75938Y-46549D01*
X75698Y-46449D01*
X75438Y-46449D01*
X75197Y-46548D01*
X75148Y-46597D01*
X73346Y-46597D01*
X73255Y-46616D01*
X73752Y-46118D01*
X75157Y-46118D01*
X75942Y-46118D01*
X76085Y-46262D01*
X76326Y-46362D01*
X76586Y-46362D01*
X76826Y-46263D01*
X77010Y-46079D01*
X77110Y-45839D01*
X77110Y-45579D01*
X77011Y-45338D01*
X76827Y-45154D01*
X76587Y-45055D01*
X76327Y-45054D01*
X76086Y-45154D01*
X75942Y-45298D01*
X75157Y-45298D01*
X75094Y-45298D01*
X75094Y-37665D01*
X74995Y-37425D01*
X74811Y-37241D01*
X74571Y-37141D01*
X74311Y-37141D01*
X74071Y-37240D01*
X73887Y-37424D01*
X73787Y-37664D01*
X73787Y-37924D01*
X73886Y-38165D01*
X74070Y-38349D01*
X74310Y-38448D01*
X74570Y-38449D01*
X74810Y-38349D01*
X74994Y-38166D01*
X75094Y-37925D01*
X75094Y-37665D01*
X75094Y-45298D01*
X73582Y-45298D01*
X73425Y-45329D01*
X73292Y-45418D01*
X71757Y-46954D01*
X71094Y-47616D01*
X71094Y-37665D01*
X70995Y-37425D01*
X70811Y-37241D01*
X70571Y-37141D01*
X70311Y-37141D01*
X70071Y-37240D01*
X69887Y-37424D01*
X69787Y-37664D01*
X69787Y-37924D01*
X69886Y-38165D01*
X70070Y-38349D01*
X70310Y-38448D01*
X70570Y-38449D01*
X70810Y-38349D01*
X70994Y-38166D01*
X71094Y-37925D01*
X71094Y-37665D01*
X71094Y-47616D01*
X69740Y-48970D01*
X69740Y-39687D01*
X69641Y-39447D01*
X69457Y-39263D01*
X69367Y-39226D01*
X69367Y-37556D01*
X69367Y-37453D01*
X69367Y-36853D01*
X69327Y-36757D01*
X69254Y-36684D01*
X69158Y-36644D01*
X69055Y-36644D01*
X68455Y-36644D01*
X68359Y-36684D01*
X68286Y-36757D01*
X68264Y-36810D01*
X68259Y-36808D01*
X68203Y-36865D01*
X68203Y-36752D01*
X68165Y-36642D01*
X67923Y-36548D01*
X67663Y-36553D01*
X67448Y-36642D01*
X67410Y-36752D01*
X67807Y-37148D01*
X68203Y-36752D01*
X68203Y-36865D01*
X67863Y-37204D01*
X68259Y-37600D01*
X68264Y-37599D01*
X68286Y-37652D01*
X68359Y-37725D01*
X68455Y-37764D01*
X68558Y-37764D01*
X69158Y-37764D01*
X69254Y-37725D01*
X69327Y-37652D01*
X69367Y-37556D01*
X69367Y-39226D01*
X69217Y-39163D01*
X68957Y-39163D01*
X68717Y-39262D01*
X68533Y-39446D01*
X68433Y-39686D01*
X68433Y-39946D01*
X68532Y-40187D01*
X68716Y-40371D01*
X68956Y-40470D01*
X69216Y-40470D01*
X69456Y-40371D01*
X69640Y-40187D01*
X69740Y-39947D01*
X69740Y-39687D01*
X69740Y-48970D01*
X69256Y-49454D01*
X69256Y-42443D01*
X69157Y-42203D01*
X68973Y-42019D01*
X68733Y-41919D01*
X68473Y-41919D01*
X68233Y-42018D01*
X68203Y-42048D01*
X68203Y-37657D01*
X67807Y-37261D01*
X67750Y-37317D01*
X67750Y-37204D01*
X67354Y-36808D01*
X67245Y-36846D01*
X67150Y-37088D01*
X67156Y-37348D01*
X67245Y-37563D01*
X67354Y-37600D01*
X67750Y-37204D01*
X67750Y-37317D01*
X67410Y-37657D01*
X67448Y-37766D01*
X67690Y-37860D01*
X67950Y-37855D01*
X68165Y-37766D01*
X68203Y-37657D01*
X68203Y-42048D01*
X68169Y-42082D01*
X68169Y-39933D01*
X68163Y-39673D01*
X68074Y-39458D01*
X67965Y-39421D01*
X67908Y-39477D01*
X67908Y-39364D01*
X67871Y-39255D01*
X67629Y-39161D01*
X67369Y-39166D01*
X67154Y-39255D01*
X67117Y-39364D01*
X67513Y-39760D01*
X67908Y-39364D01*
X67908Y-39477D01*
X67569Y-39817D01*
X67965Y-40213D01*
X68074Y-40175D01*
X68169Y-39933D01*
X68169Y-42082D01*
X68069Y-42181D01*
X68055Y-42177D01*
X67999Y-42233D01*
X67999Y-42120D01*
X67961Y-42011D01*
X67908Y-41990D01*
X67908Y-40269D01*
X67513Y-39873D01*
X67456Y-39930D01*
X67456Y-39817D01*
X67060Y-39421D01*
X66951Y-39458D01*
X66856Y-39700D01*
X66862Y-39960D01*
X66951Y-40175D01*
X67060Y-40213D01*
X67456Y-39817D01*
X67456Y-39930D01*
X67117Y-40269D01*
X67154Y-40378D01*
X67396Y-40473D01*
X67656Y-40467D01*
X67871Y-40378D01*
X67908Y-40269D01*
X67908Y-41990D01*
X67719Y-41916D01*
X67459Y-41922D01*
X67244Y-42011D01*
X67207Y-42120D01*
X67603Y-42516D01*
X67999Y-42120D01*
X67999Y-42233D01*
X67659Y-42573D01*
X68055Y-42969D01*
X68070Y-42964D01*
X68232Y-43127D01*
X68472Y-43226D01*
X68732Y-43227D01*
X68972Y-43127D01*
X69157Y-42944D01*
X69256Y-42703D01*
X69256Y-42443D01*
X69256Y-49454D01*
X67999Y-50712D01*
X67999Y-43025D01*
X67603Y-42629D01*
X67546Y-42686D01*
X67546Y-42573D01*
X67150Y-42177D01*
X67041Y-42214D01*
X66946Y-42456D01*
X66952Y-42716D01*
X67041Y-42931D01*
X67150Y-42969D01*
X67546Y-42573D01*
X67546Y-42686D01*
X67207Y-43025D01*
X67244Y-43134D01*
X67486Y-43229D01*
X67746Y-43224D01*
X67961Y-43134D01*
X67999Y-43025D01*
X67999Y-50712D01*
X67938Y-50773D01*
X66639Y-52072D01*
X66550Y-52205D01*
X66519Y-52362D01*
X66519Y-58582D01*
X66519Y-58855D01*
X66375Y-58999D01*
X66275Y-59239D01*
X66275Y-59499D01*
X66374Y-59739D01*
X66558Y-59923D01*
X66798Y-60023D01*
X67058Y-60023D01*
X67298Y-59924D01*
X67482Y-59740D01*
X67503Y-59691D01*
X67503Y-73110D01*
X67534Y-73267D01*
X67623Y-73400D01*
X68843Y-74620D01*
X68992Y-74768D01*
X68991Y-74971D01*
X69091Y-75212D01*
X69274Y-75396D01*
X69515Y-75496D01*
X69775Y-75496D01*
X70015Y-75397D01*
X70199Y-75213D01*
X70299Y-74973D01*
X70299Y-74713D01*
X70200Y-74472D01*
X70016Y-74288D01*
X69776Y-74188D01*
X69571Y-74188D01*
X69423Y-74040D01*
X68323Y-72940D01*
X68323Y-52610D01*
X68330Y-52604D01*
X68330Y-72244D01*
X68361Y-72400D01*
X68450Y-72534D01*
X70773Y-74856D01*
X70906Y-74945D01*
X70906Y-74945D01*
X71062Y-74976D01*
X71141Y-74976D01*
X71532Y-74976D01*
X71676Y-75120D01*
X71916Y-75220D01*
X72176Y-75220D01*
X72417Y-75121D01*
X72601Y-74937D01*
X72700Y-74697D01*
X72701Y-74437D01*
X72601Y-74197D01*
X72418Y-74013D01*
X72177Y-73913D01*
X71917Y-73913D01*
X71677Y-74012D01*
X71532Y-74156D01*
X71232Y-74156D01*
X69150Y-72074D01*
X69150Y-69611D01*
X72692Y-73154D01*
X72692Y-73357D01*
X72791Y-73598D01*
X72975Y-73782D01*
X73215Y-73881D01*
X73475Y-73882D01*
X73716Y-73782D01*
X73900Y-73599D01*
X74000Y-73358D01*
X74000Y-73098D01*
X73900Y-72858D01*
X73717Y-72674D01*
X73477Y-72574D01*
X73272Y-72574D01*
X69740Y-69042D01*
X69740Y-61570D01*
X69747Y-61577D01*
X69987Y-61677D01*
X70192Y-61677D01*
X72188Y-63673D01*
X72188Y-67519D01*
X72188Y-67792D01*
X72044Y-67936D01*
X71944Y-68176D01*
X71944Y-68436D01*
X72043Y-68676D01*
X72227Y-68860D01*
X72467Y-68960D01*
X72727Y-68960D01*
X72968Y-68861D01*
X73105Y-68724D01*
X73312Y-68931D01*
X75141Y-70760D01*
X75141Y-70826D01*
X75141Y-70863D01*
X74997Y-71007D01*
X74897Y-71247D01*
X74897Y-71507D01*
X74996Y-71747D01*
X75180Y-71931D01*
X75420Y-72031D01*
X75680Y-72031D01*
X75920Y-71932D01*
X76105Y-71748D01*
X76204Y-71508D01*
X76204Y-71248D01*
X76105Y-71008D01*
X75961Y-70863D01*
X75961Y-70826D01*
X75961Y-70590D01*
X75929Y-70433D01*
X75929Y-70433D01*
X75841Y-70300D01*
X73892Y-68351D01*
X73478Y-67938D01*
X73345Y-67849D01*
X73188Y-67818D01*
X73034Y-67818D01*
X73008Y-67792D01*
X73008Y-67519D01*
X73008Y-63503D01*
X72977Y-63347D01*
X72977Y-63347D01*
X72888Y-63214D01*
X70771Y-61097D01*
X70771Y-60894D01*
X70672Y-60653D01*
X70488Y-60469D01*
X70248Y-60370D01*
X69988Y-60369D01*
X69748Y-60469D01*
X69740Y-60476D01*
X69740Y-57492D01*
X69965Y-57267D01*
X70168Y-57267D01*
X70409Y-57168D01*
X70553Y-57024D01*
X71023Y-57024D01*
X79094Y-57024D01*
X79210Y-57024D01*
X79353Y-57168D01*
X79593Y-57267D01*
X79853Y-57267D01*
X80094Y-57168D01*
X80278Y-56984D01*
X80377Y-56744D01*
X80378Y-56484D01*
X80278Y-56244D01*
X80095Y-56060D01*
X79951Y-56000D01*
X80433Y-56000D01*
X80589Y-55969D01*
X80589Y-55969D01*
X80722Y-55880D01*
X82660Y-53942D01*
X82660Y-55341D01*
X74434Y-63568D01*
X74345Y-63701D01*
X74314Y-63858D01*
X74314Y-68543D01*
X74345Y-68700D01*
X74434Y-68833D01*
X77936Y-72335D01*
X77936Y-75078D01*
X77936Y-75944D01*
X77936Y-76572D01*
X77831Y-76676D01*
X77732Y-76916D01*
X77732Y-77176D01*
X77831Y-77417D01*
X78015Y-77601D01*
X78255Y-77700D01*
X78515Y-77701D01*
X78755Y-77601D01*
X78939Y-77418D01*
X79039Y-77177D01*
X79039Y-76917D01*
X78940Y-76677D01*
X78756Y-76493D01*
X78756Y-76493D01*
X78756Y-75944D01*
X78756Y-75078D01*
X78756Y-72165D01*
X78725Y-72008D01*
X78725Y-72008D01*
X78636Y-71875D01*
X75788Y-69027D01*
X75999Y-68940D01*
X76183Y-68756D01*
X76283Y-68516D01*
X76283Y-68256D01*
X76184Y-68016D01*
X76039Y-67871D01*
X76039Y-64106D01*
X76549Y-63597D01*
X87183Y-52963D01*
X87386Y-52963D01*
X87627Y-52863D01*
X87811Y-52680D01*
X87911Y-52440D01*
X87911Y-52179D01*
X87911Y-62106D01*
X87862Y-62155D01*
X87732Y-62467D01*
X87731Y-62806D01*
X87861Y-63118D01*
X88100Y-63358D01*
X88412Y-63488D01*
X88751Y-63488D01*
X89063Y-63359D01*
X89303Y-63120D01*
X89433Y-62807D01*
X89433Y-62469D01*
X89433Y-79018D01*
X89261Y-78846D01*
X88971Y-78725D01*
X88971Y-66385D01*
X84810Y-66385D01*
X84850Y-76841D01*
X88809Y-76883D01*
X88971Y-66385D01*
X88971Y-78725D01*
X88949Y-78716D01*
X88611Y-78716D01*
X88298Y-78845D01*
X88058Y-79084D01*
X87929Y-79397D01*
X87928Y-79735D01*
X88058Y-80048D01*
X88297Y-80287D01*
X88609Y-80417D01*
X88947Y-80417D01*
X89260Y-80288D01*
X89500Y-80049D01*
X89629Y-79736D01*
X89630Y-79398D01*
X89630Y-80686D01*
X78723Y-80686D01*
X78723Y-79894D01*
X78718Y-79634D01*
X78629Y-79419D01*
X78520Y-79381D01*
X78463Y-79438D01*
X78463Y-79325D01*
X78426Y-79216D01*
X78184Y-79121D01*
X77924Y-79127D01*
X77709Y-79216D01*
X77671Y-79325D01*
X78067Y-79721D01*
X78463Y-79325D01*
X78463Y-79438D01*
X78124Y-79777D01*
X78520Y-80174D01*
X78629Y-80136D01*
X78723Y-79894D01*
X78723Y-80686D01*
X78463Y-80686D01*
X78463Y-80230D01*
X78067Y-79834D01*
X78011Y-79891D01*
X78011Y-79777D01*
X77615Y-79381D01*
X77600Y-79386D01*
X77438Y-79224D01*
X77198Y-79124D01*
X76938Y-79124D01*
X76697Y-79223D01*
X76567Y-79353D01*
X76438Y-79224D01*
X76198Y-79124D01*
X75938Y-79124D01*
X75697Y-79223D01*
X75588Y-79332D01*
X75588Y-79330D01*
X75514Y-79257D01*
X75419Y-79217D01*
X75315Y-79217D01*
X74715Y-79217D01*
X74620Y-79257D01*
X74547Y-79330D01*
X74507Y-79426D01*
X74507Y-79529D01*
X74507Y-80129D01*
X74547Y-80225D01*
X74620Y-80298D01*
X74715Y-80337D01*
X74819Y-80337D01*
X75419Y-80337D01*
X75514Y-80298D01*
X75588Y-80225D01*
X75588Y-80223D01*
X75696Y-80331D01*
X75937Y-80431D01*
X76197Y-80431D01*
X76437Y-80332D01*
X76567Y-80202D01*
X76696Y-80331D01*
X76937Y-80431D01*
X77197Y-80431D01*
X77437Y-80332D01*
X77601Y-80169D01*
X77615Y-80174D01*
X78011Y-79777D01*
X78011Y-79891D01*
X77671Y-80230D01*
X77709Y-80339D01*
X77951Y-80434D01*
X78211Y-80428D01*
X78426Y-80339D01*
X78463Y-80230D01*
X78463Y-80686D01*
X63211Y-80686D01*
X63211Y-78173D01*
X63267Y-78229D01*
X63282Y-78306D01*
X63371Y-78439D01*
X63504Y-78528D01*
X63661Y-78559D01*
X64593Y-78559D01*
X64282Y-78687D01*
X64043Y-78927D01*
X63913Y-79239D01*
X63913Y-79577D01*
X64042Y-79890D01*
X64281Y-80130D01*
X64593Y-80259D01*
X64932Y-80260D01*
X65244Y-80130D01*
X65484Y-79891D01*
X65614Y-79579D01*
X65614Y-79241D01*
X65485Y-78928D01*
X65246Y-78688D01*
X64935Y-78559D01*
X66338Y-78559D01*
X66495Y-78528D01*
X66495Y-78528D01*
X66628Y-78439D01*
X67061Y-78006D01*
X67150Y-77873D01*
X67150Y-77873D01*
X67181Y-77716D01*
X67181Y-75275D01*
X67181Y-75002D01*
X67325Y-74858D01*
X67425Y-74618D01*
X67425Y-74358D01*
X67326Y-74118D01*
X67142Y-73934D01*
X66902Y-73834D01*
X66642Y-73834D01*
X66401Y-73933D01*
X66217Y-74117D01*
X66118Y-74357D01*
X66117Y-74617D01*
X66217Y-74857D01*
X66361Y-75002D01*
X66361Y-75275D01*
X66361Y-77546D01*
X66168Y-77739D01*
X64263Y-77739D01*
X64429Y-77671D01*
X64538Y-77562D01*
X64539Y-77563D01*
X64612Y-77636D01*
X64708Y-77676D01*
X64811Y-77676D01*
X65411Y-77676D01*
X65507Y-77636D01*
X65580Y-77563D01*
X65619Y-77468D01*
X65619Y-77364D01*
X65619Y-76764D01*
X65580Y-76669D01*
X65507Y-76596D01*
X65505Y-76595D01*
X65613Y-76487D01*
X65713Y-76247D01*
X65713Y-75987D01*
X65614Y-75746D01*
X65484Y-75616D01*
X65613Y-75487D01*
X65713Y-75247D01*
X65713Y-74987D01*
X65614Y-74746D01*
X65484Y-74616D01*
X65613Y-74487D01*
X65713Y-74247D01*
X65713Y-73987D01*
X65614Y-73746D01*
X65484Y-73616D01*
X65613Y-73487D01*
X65713Y-73247D01*
X65713Y-72987D01*
X65614Y-72746D01*
X65484Y-72616D01*
X65613Y-72487D01*
X65713Y-72247D01*
X65713Y-71987D01*
X65614Y-71746D01*
X65484Y-71616D01*
X65613Y-71487D01*
X65713Y-71247D01*
X65713Y-70987D01*
X65614Y-70746D01*
X65484Y-70616D01*
X65613Y-70487D01*
X65713Y-70247D01*
X65713Y-69987D01*
X65614Y-69746D01*
X65484Y-69616D01*
X65613Y-69487D01*
X65713Y-69247D01*
X65713Y-68987D01*
X65614Y-68746D01*
X65484Y-68616D01*
X65613Y-68487D01*
X65713Y-68247D01*
X65713Y-67987D01*
X65614Y-67746D01*
X65484Y-67616D01*
X65613Y-67487D01*
X65713Y-67247D01*
X65713Y-66987D01*
X65614Y-66746D01*
X65484Y-66616D01*
X65613Y-66487D01*
X65713Y-66247D01*
X65713Y-65987D01*
X65614Y-65746D01*
X65484Y-65616D01*
X65613Y-65487D01*
X65713Y-65247D01*
X65713Y-64987D01*
X65614Y-64746D01*
X65430Y-64562D01*
X65190Y-64462D01*
X64930Y-64462D01*
X64690Y-64562D01*
X64559Y-64692D01*
X64430Y-64562D01*
X64190Y-64462D01*
X64162Y-64462D01*
X64188Y-64452D01*
X64333Y-64307D01*
X64724Y-64307D01*
X65381Y-64307D01*
X66282Y-65209D01*
X66282Y-72086D01*
X66282Y-72517D01*
X66139Y-72660D01*
X66039Y-72900D01*
X66039Y-73160D01*
X66138Y-73401D01*
X66322Y-73585D01*
X66562Y-73685D01*
X66822Y-73685D01*
X67062Y-73585D01*
X67246Y-73402D01*
X67346Y-73162D01*
X67346Y-72902D01*
X67247Y-72661D01*
X67102Y-72516D01*
X67102Y-72086D01*
X67102Y-65039D01*
X67071Y-64882D01*
X67071Y-64882D01*
X66982Y-64749D01*
X65841Y-63607D01*
X65708Y-63518D01*
X65551Y-63487D01*
X65131Y-63487D01*
X65441Y-63359D01*
X65681Y-63120D01*
X65811Y-62807D01*
X65811Y-62469D01*
X65811Y-39280D01*
X65682Y-38967D01*
X65443Y-38728D01*
X65130Y-38598D01*
X64792Y-38598D01*
X64479Y-38727D01*
X64239Y-38966D01*
X64110Y-39278D01*
X64109Y-39617D01*
X64239Y-39929D01*
X64478Y-40169D01*
X64790Y-40299D01*
X65129Y-40299D01*
X65441Y-40170D01*
X65681Y-39931D01*
X65811Y-39618D01*
X65811Y-39280D01*
X65811Y-62469D01*
X65682Y-62156D01*
X65443Y-61917D01*
X65216Y-61822D01*
X65216Y-59740D01*
X65216Y-47776D01*
X65213Y-47658D01*
X65213Y-45699D01*
X65114Y-45459D01*
X65005Y-45350D01*
X65007Y-45349D01*
X65080Y-45276D01*
X65119Y-45180D01*
X65119Y-44934D01*
X65119Y-44724D01*
X65119Y-44477D01*
X65080Y-44381D01*
X65007Y-44308D01*
X64911Y-44269D01*
X64808Y-44269D01*
X64664Y-44269D01*
X64599Y-44334D01*
X64599Y-44789D01*
X65054Y-44789D01*
X65119Y-44724D01*
X65119Y-44934D01*
X65054Y-44869D01*
X64599Y-44869D01*
X64599Y-44877D01*
X64519Y-44877D01*
X64519Y-44869D01*
X64519Y-44789D01*
X64519Y-44334D01*
X64454Y-44269D01*
X64311Y-44269D01*
X64208Y-44269D01*
X64112Y-44308D01*
X64039Y-44381D01*
X63999Y-44477D01*
X63999Y-44724D01*
X64064Y-44789D01*
X64519Y-44789D01*
X64519Y-44869D01*
X64064Y-44869D01*
X63999Y-44934D01*
X63999Y-45180D01*
X64039Y-45276D01*
X64112Y-45349D01*
X64114Y-45350D01*
X64005Y-45458D01*
X63906Y-45698D01*
X63906Y-45958D01*
X64005Y-46198D01*
X64189Y-46382D01*
X64429Y-46482D01*
X64689Y-46482D01*
X64929Y-46383D01*
X65113Y-46199D01*
X65213Y-45959D01*
X65213Y-45699D01*
X65213Y-47658D01*
X65210Y-47516D01*
X65121Y-47301D01*
X65012Y-47263D01*
X64955Y-47320D01*
X64955Y-47207D01*
X64918Y-47098D01*
X64676Y-47003D01*
X64416Y-47008D01*
X64201Y-47098D01*
X64163Y-47207D01*
X64559Y-47603D01*
X64955Y-47207D01*
X64955Y-47320D01*
X64616Y-47659D01*
X65012Y-48055D01*
X65121Y-48018D01*
X65216Y-47776D01*
X65216Y-59740D01*
X65213Y-59623D01*
X65213Y-58494D01*
X65114Y-58254D01*
X64984Y-58124D01*
X65113Y-57995D01*
X65213Y-57755D01*
X65213Y-57494D01*
X65213Y-54164D01*
X65114Y-53923D01*
X64984Y-53793D01*
X65113Y-53664D01*
X65213Y-53424D01*
X65213Y-53164D01*
X65213Y-51530D01*
X65114Y-51290D01*
X64955Y-51131D01*
X64955Y-48112D01*
X64559Y-47716D01*
X64503Y-47772D01*
X64503Y-47659D01*
X64107Y-47263D01*
X63998Y-47301D01*
X63903Y-47543D01*
X63908Y-47803D01*
X63998Y-48018D01*
X64107Y-48055D01*
X64503Y-47659D01*
X64503Y-47772D01*
X64163Y-48112D01*
X64201Y-48221D01*
X64443Y-48316D01*
X64703Y-48310D01*
X64918Y-48221D01*
X64955Y-48112D01*
X64955Y-51131D01*
X64930Y-51105D01*
X64690Y-51006D01*
X64430Y-51006D01*
X64190Y-51105D01*
X64005Y-51289D01*
X63906Y-51529D01*
X63906Y-51789D01*
X64005Y-52029D01*
X64189Y-52213D01*
X64429Y-52313D01*
X64689Y-52313D01*
X64929Y-52214D01*
X65113Y-52030D01*
X65213Y-51790D01*
X65213Y-51530D01*
X65213Y-53164D01*
X65114Y-52923D01*
X64930Y-52739D01*
X64690Y-52640D01*
X64430Y-52639D01*
X64190Y-52739D01*
X64005Y-52922D01*
X63906Y-53163D01*
X63906Y-53423D01*
X64005Y-53663D01*
X64135Y-53793D01*
X64005Y-53922D01*
X63906Y-54163D01*
X63906Y-54423D01*
X64005Y-54663D01*
X64189Y-54847D01*
X64429Y-54947D01*
X64689Y-54947D01*
X64929Y-54848D01*
X65113Y-54664D01*
X65213Y-54424D01*
X65213Y-54164D01*
X65213Y-57494D01*
X65114Y-57254D01*
X65005Y-57145D01*
X65007Y-57144D01*
X65080Y-57071D01*
X65119Y-56976D01*
X65119Y-56872D01*
X65119Y-56272D01*
X65080Y-56177D01*
X65007Y-56103D01*
X64911Y-56064D01*
X64808Y-56064D01*
X64208Y-56064D01*
X64112Y-56103D01*
X64039Y-56177D01*
X63999Y-56272D01*
X63999Y-56376D01*
X63999Y-56976D01*
X64039Y-57071D01*
X64112Y-57144D01*
X64114Y-57145D01*
X64005Y-57253D01*
X63906Y-57493D01*
X63906Y-57753D01*
X64005Y-57994D01*
X64135Y-58124D01*
X64005Y-58253D01*
X63906Y-58493D01*
X63906Y-58753D01*
X64005Y-58994D01*
X64168Y-59157D01*
X64163Y-59171D01*
X64559Y-59567D01*
X64955Y-59171D01*
X64951Y-59157D01*
X65113Y-58995D01*
X65213Y-58755D01*
X65213Y-58494D01*
X65213Y-59623D01*
X65210Y-59480D01*
X65121Y-59265D01*
X65012Y-59228D01*
X64616Y-59624D01*
X65012Y-60020D01*
X65121Y-59983D01*
X65216Y-59740D01*
X65216Y-61822D01*
X65130Y-61787D01*
X64955Y-61787D01*
X64955Y-60077D01*
X64559Y-59680D01*
X64503Y-59737D01*
X64503Y-59624D01*
X64107Y-59228D01*
X63998Y-59265D01*
X63903Y-59507D01*
X63908Y-59767D01*
X63998Y-59983D01*
X64107Y-60020D01*
X64503Y-59624D01*
X64503Y-59737D01*
X64163Y-60077D01*
X64201Y-60186D01*
X64443Y-60280D01*
X64703Y-60275D01*
X64918Y-60186D01*
X64955Y-60077D01*
X64955Y-61787D01*
X64792Y-61787D01*
X64479Y-61916D01*
X64239Y-62155D01*
X64110Y-62467D01*
X64109Y-62806D01*
X64239Y-63118D01*
X64478Y-63358D01*
X64789Y-63487D01*
X64724Y-63487D01*
X64333Y-63487D01*
X64189Y-63343D01*
X63949Y-63244D01*
X63689Y-63243D01*
X63449Y-63343D01*
X63265Y-63526D01*
X63211Y-63655D01*
X63211Y-36144D01*
X77279Y-36144D01*
X77185Y-36370D01*
X77185Y-36630D01*
X77284Y-36870D01*
X77468Y-37054D01*
X77520Y-37076D01*
X77469Y-37097D01*
X77306Y-37260D01*
X77292Y-37255D01*
X77235Y-37312D01*
X77235Y-37199D01*
X77198Y-37090D01*
X76955Y-36995D01*
X76695Y-37001D01*
X76480Y-37090D01*
X76443Y-37199D01*
X76839Y-37595D01*
X77235Y-37199D01*
X77235Y-37312D01*
X76895Y-37651D01*
X77292Y-38048D01*
X77306Y-38043D01*
X77468Y-38205D01*
X77708Y-38305D01*
X77968Y-38305D01*
X78209Y-38206D01*
X78339Y-38076D01*
X78468Y-38205D01*
X78708Y-38305D01*
X78968Y-38305D01*
X79209Y-38206D01*
X79318Y-38097D01*
X79318Y-38099D01*
X79392Y-38172D01*
X79487Y-38211D01*
X79591Y-38211D01*
X80191Y-38211D01*
X80286Y-38172D01*
X80359Y-38099D01*
X80399Y-38003D01*
X80399Y-37900D01*
X80399Y-37300D01*
X80359Y-37204D01*
X80286Y-37131D01*
X80191Y-37091D01*
X80087Y-37091D01*
X79487Y-37091D01*
X79392Y-37131D01*
X79318Y-37204D01*
X79318Y-37206D01*
X79210Y-37098D01*
X78969Y-36998D01*
X78709Y-36998D01*
X78469Y-37097D01*
X78339Y-37227D01*
X78210Y-37098D01*
X78157Y-37076D01*
X78209Y-37055D01*
X78393Y-36871D01*
X78395Y-36866D01*
X78818Y-36866D01*
X81011Y-36866D01*
X81715Y-37571D01*
X81715Y-39921D01*
X81715Y-40036D01*
X81572Y-40180D01*
X81472Y-40420D01*
X81472Y-40680D01*
X81571Y-40920D01*
X81755Y-41105D01*
X81995Y-41204D01*
X82255Y-41204D01*
X82495Y-41105D01*
X82679Y-40921D01*
X82779Y-40681D01*
X82779Y-40421D01*
X82680Y-40181D01*
X82535Y-40036D01*
X82535Y-39921D01*
X82535Y-37401D01*
X82504Y-37244D01*
X82504Y-37244D01*
X82415Y-37111D01*
X81471Y-36166D01*
X81437Y-36144D01*
X90331Y-36144D01*
X90331Y-80686D01*
M02*
